<?xml version="1.0" encoding="UTF-8" standalone="no"?>
<svg width="20px" height="20px" viewBox="0 0 20 20" version="1.1" xmlns="http://www.w3.org/2000/svg" xmlns:xlink="http://www.w3.org/1999/xlink">
    <!-- Generator: Sketch 43.1 (39012) - http://www.bohemiancoding.com/sketch -->
    <title>Instagram</title>
    <desc>Created with Sketch.</desc>
    <defs></defs>
    <g id="Landing" stroke="none" stroke-width="1" fill="none" fill-rule="evenodd">
        <g id="Landing-(Desktop)" transform="translate(-848.000000, -750.000000)" fill-rule="nonzero" fill="#3A3A3A">
            <g id="Footer" transform="translate(113.000000, 709.000000)">
                <g id="Follow-Us" transform="translate(700.000000, 0.000000)">
                    <g id="Social-Buttons" transform="translate(0.000000, 41.000000)">
                        <path d="M47.3575,5.25166667 C46.7425,5.22333333 46.5575,5.21833333 45,5.21833333 C43.4425,5.21833333 43.2583333,5.22416667 42.6433333,5.25166667 C41.0608333,5.32416667 40.3241667,6.07333333 40.2516667,7.64333333 C40.2241667,8.25833333 40.2175,8.4425 40.2175,10 C40.2175,11.5575 40.2241667,11.7416667 40.2516667,12.3575 C40.3241667,13.9233333 41.0575,14.6766667 42.6433333,14.7491667 C43.2575,14.7766667 43.4425,14.7833333 45,14.7833333 C46.5583333,14.7833333 46.7425,14.7775 47.3575,14.7491667 C48.94,14.6775 49.6758333,13.9258333 49.7491667,12.3575 C49.7766667,11.7425 49.7825,11.5575 49.7825,10 C49.7825,8.4425 49.7766667,8.25833333 49.7491667,7.64333333 C49.6758333,6.07416667 48.9383333,5.32416667 47.3575,5.25166667 L47.3575,5.25166667 Z M45,12.9958333 C43.3458333,12.9958333 42.0041667,11.655 42.0041667,10 C42.0041667,8.34583333 43.3458333,7.005 45,7.005 C46.6541667,7.005 47.9958333,8.34583333 47.9958333,10 C47.9958333,11.6541667 46.6541667,12.9958333 45,12.9958333 Z M48.1141667,7.58666667 C47.7275,7.58666667 47.4141667,7.27333333 47.4141667,6.88666667 C47.4141667,6.5 47.7275,6.18666667 48.1141667,6.18666667 C48.5008333,6.18666667 48.8141667,6.5 48.8141667,6.88666667 C48.8141667,7.2725 48.5008333,7.58666667 48.1141667,7.58666667 L48.1141667,7.58666667 Z M46.9441667,10 C46.9441667,11.0741667 46.0733333,11.9441667 45,11.9441667 C43.9266667,11.9441667 43.0558333,11.0741667 43.0558333,10 C43.0558333,8.92583333 43.9266667,8.05583333 45,8.05583333 C46.0733333,8.05583333 46.9441667,8.92583333 46.9441667,10 Z M45,0 C39.4775,0 35,4.4775 35,10 C35,15.5225 39.4775,20 45,20 C50.5225,20 55,15.5225 55,10 C55,4.4775 50.5225,0 45,0 Z M50.7983333,12.405 C50.7025,14.5258333 49.5216667,15.7008333 47.4058333,15.7983333 C46.7833333,15.8266667 46.5841667,15.8333333 45,15.8333333 C43.4158333,15.8333333 43.2175,15.8266667 42.595,15.7983333 C40.475,15.7008333 39.2991667,14.5241667 39.2016667,12.405 C39.1733333,11.7833333 39.1666667,11.5841667 39.1666667,10 C39.1666667,8.41583333 39.1733333,8.2175 39.2016667,7.595 C39.2991667,5.475 40.4758333,4.29916667 42.595,4.2025 C43.2175,4.17333333 43.4158333,4.16666667 45,4.16666667 C46.5841667,4.16666667 46.7833333,4.17333333 47.4058333,4.2025 C49.5266667,4.3 50.7033333,5.47916667 50.7983333,7.595 C50.8266667,8.2175 50.8333333,8.41583333 50.8333333,10 C50.8333333,11.5841667 50.8266667,11.7833333 50.7983333,12.405 Z" id="Instagram"></path>
                    </g>
                </g>
            </g>
        </g>
    </g>
</svg>