<?xml version="1.0" encoding="UTF-8" standalone="no"?>
<svg width="32px" height="30px" viewBox="0 0 32 30" version="1.1" xmlns="http://www.w3.org/2000/svg" xmlns:xlink="http://www.w3.org/1999/xlink">
    <!-- Generator: Sketch 43.2 (39069) - http://www.bohemiancoding.com/sketch -->
    <title>I Am Star</title>
    <desc>Created with Sketch.</desc>
    <defs>
        <linearGradient x1="4.66299988%" y1="85.2359218%" x2="20.0035375%" y2="81.3274999%" id="linearGradient-1">
            <stop stop-color="#424242" offset="0%"></stop>
            <stop stop-color="#828282" offset="100%"></stop>
        </linearGradient>
        <linearGradient x1="4.94107166%" y1="85.2359218%" x2="19.9660055%" y2="81.3842848%" id="linearGradient-2">
            <stop stop-color="#424242" offset="0%"></stop>
            <stop stop-color="#828282" offset="99.1111288%"></stop>
        </linearGradient>
        <linearGradient x1="4.94107008%" y1="85.2359218%" x2="20.1875179%" y2="81.3274999%" id="linearGradient-3">
            <stop stop-color="#424242" offset="0%"></stop>
            <stop stop-color="#828282" offset="100%"></stop>
        </linearGradient>
        <linearGradient x1="4.61757198%" y1="85.2359218%" x2="19.9734809%" y2="81.3274999%" id="linearGradient-4">
            <stop stop-color="#424242" offset="0%"></stop>
            <stop stop-color="#828282" offset="100%"></stop>
        </linearGradient>
        <linearGradient x1="3.51786426%" y1="85.2359218%" x2="19.3327707%" y2="80.1243607%" id="linearGradient-5">
            <stop stop-color="#424242" offset="0%"></stop>
            <stop stop-color="#828282" offset="100%"></stop>
        </linearGradient>
    </defs>
    <g id="Components" stroke="none" stroke-width="1" fill="none" fill-rule="evenodd">
        <g id="Artboard-#1" transform="translate(-285.000000, -236.000000)">
            <g id="Logotypes" transform="translate(48.000000, 233.000000)">
                <g id="B&amp;W">
                    <g id="I-Am-Star" transform="translate(234.000000, 0.000000)">
                        <g id="I-Am-Star-Logo" transform="translate(0.000000, 3.000000)">
                            <path d="M2.86507569,23.3654527 L8.11255463,22.7823612 C8.11255463,22.7823612 8.6737445,22.7536262 9.23527939,22.5087761 C9.79681431,22.2639261 10.099643,21.5925243 10.099643,21.5925243 L12.4888372,16.701374 C12.4888372,16.701374 13.6319723,14.3545649 14.985926,14.3545648 C15.9034492,14.3545649 16.1845148,15.0485521 16.1845148,15.0485521 L14.3959525,11.2793998 C14.3959525,11.2793998 13.842495,10.0436213 12.659814,10.0436213 C11.1341571,9.93635726 10.3527273,11.6673949 10.3527273,11.6673949 L7.11351272,18.2893773 C7.11351272,18.2893773 7.04327746,18.6752463 6.68112304,18.7678853 C6.31896861,18.8605243 2.36063782,19.3948154 2.36063782,19.3948154 C2.36063782,19.3948154 1.36677325,19.6762259 1.40794763,20.594291 C1.44912201,21.5123562 2.86507569,23.3654527 2.86507569,23.3654527 Z" id="Path-13" fill="url(#linearGradient-1)" transform="translate(8.795609, 16.702144) rotate(-72.000000) translate(-8.795609, -16.702144) "></path>
                            <path d="M10.438536,32.9849459 L15.6860149,32.4018544 C15.6860149,32.4018544 16.2472048,32.3731195 16.8087397,32.1282693 C17.3702746,31.8834194 17.6731033,31.2120176 17.6731033,31.2120176 L20.0622975,26.3208673 C20.0622975,26.3208673 21.2054326,23.9740582 22.5593862,23.9740581 C23.4769095,23.9740582 23.8087924,24.6686888 23.8087924,24.6686888 L21.9694128,20.8988931 C21.9694128,20.8988931 21.4159552,19.6631146 20.2332743,19.6631146 C18.7076174,19.5558506 17.9261876,21.2868883 17.9261876,21.2868883 L14.686973,27.9088705 C14.686973,27.9088705 14.6167377,28.2947396 14.2545833,28.3873785 C13.8924289,28.4800176 9.95512604,29.0341227 9.95512604,29.0341227 C9.95512604,29.0341227 8.98545148,29.9428602 8.98545148,30.7097949 C8.98545148,31.4767295 10.438536,32.9849459 10.438536,32.9849459 Z" id="Path-13" fill="url(#linearGradient-2)" transform="translate(16.397122, 26.321637) rotate(216.000000) translate(-16.397122, -26.321637) "></path>
                            <path d="M21.8992025,28.6736893 L27.1466813,28.0905978 C27.1466813,28.0905978 27.7078714,28.0618626 28.2694063,27.8170127 C28.8309412,27.5721626 29.1337698,26.9007607 29.1337698,26.9007607 L31.5229639,22.0096105 C31.5229639,22.0096105 32.666099,19.6628015 34.0200527,19.6628013 C34.9375761,19.6628015 35.2694589,20.3574321 35.2694589,20.3574321 L33.4300793,16.5876364 C33.4300793,16.5876364 32.8766217,15.3518578 31.6939407,15.3518578 C30.168284,15.2445938 29.3868542,16.9756315 29.3868542,16.9756315 L26.1476395,23.5976138 C26.1476395,23.5976138 26.0774043,23.9834829 25.7152498,24.0761218 C25.3530954,24.1687608 21.2668171,24.8509451 21.2668171,24.8509451 C21.2668171,24.8509451 20.446118,25.6316034 20.446118,26.3985381 C20.446118,27.1654727 21.8992025,28.6736893 21.8992025,28.6736893 Z" id="Path-13" fill="url(#linearGradient-3)" transform="translate(27.857788, 22.010380) rotate(144.000000) translate(-27.857788, -22.010380) "></path>
                            <path d="M21.5966939,16.4048305 L26.4731808,15.8576401 C26.4731808,15.8576401 27.0343706,15.828905 27.5959055,15.584055 C28.1574404,15.339205 28.4602693,14.6678031 28.4602693,14.6678031 L30.8494634,9.77665282 C30.8494634,9.77665282 31.9925984,7.42984378 33.3465522,7.42984359 C34.2640753,7.42984378 34.5959583,8.12447435 34.5959583,8.12447435 L32.7565787,4.35467867 C32.7565787,4.35467867 32.2031211,3.11890013 31.0204401,3.11890013 C29.4947831,3.01163613 28.7133534,4.74267382 28.7133534,4.74267382 L25.4741389,11.3646561 C25.4741389,11.3646561 25.4039036,11.7505252 25.0417492,11.8431642 C24.6795947,11.9358031 20.8788938,12.4221392 20.8788938,12.4221392 C20.8788938,12.4221392 19.8653349,12.9572857 19.8653349,13.7242204 C19.8653349,14.4911551 21.5966939,16.4048305 21.5966939,16.4048305 Z" id="Path-13" fill="url(#linearGradient-4)" transform="translate(27.230647, 9.759472) rotate(71.000000) translate(-27.230647, -9.759472) "></path>
                            <path d="M10.011624,13.2713667 L14.7161884,12.7435267 C14.7161884,12.7435267 15.2773783,12.7147916 15.8389132,12.4699416 C16.4004481,12.2250916 16.7032768,11.5536897 16.7032768,11.5536897 L19.092471,6.66253945 C19.092471,6.66253945 20.2356061,4.31573039 21.5895597,4.31573023 C22.507083,4.31573039 22.8389659,5.01036098 22.8389659,5.01036098 L20.9995863,1.24056529 C20.9995863,1.24056529 20.4461288,0.00478673051 19.2634478,0.00478673054 C17.7377909,-0.10247726 16.9563611,1.62856043 16.9563611,1.62856043 L13.7171465,8.25054275 C13.7171465,8.25054275 13.6469112,8.63641179 13.2847568,8.72905076 C12.9226024,8.82168973 9.00807606,9.21478443 9.00807606,9.21478443 C9.00807606,9.21478443 8.30483101,9.81061044 8.30483101,10.5775451 C8.30483101,12.0977703 10.011624,13.2713667 10.011624,13.2713667 Z" id="Path-13" fill="url(#linearGradient-5)"></path>
                        </g>
                    </g>
                </g>
            </g>
        </g>
    </g>
</svg>