<?xml version="1.0" encoding="UTF-8" standalone="no"?>
<svg width="38px" height="27px" viewBox="0 0 38 27" version="1.1" xmlns="http://www.w3.org/2000/svg" xmlns:xlink="http://www.w3.org/1999/xlink">
    <!-- Generator: Sketch 43.2 (39069) - http://www.bohemiancoding.com/sketch -->
    <title>Fenix</title>
    <desc>Created with Sketch.</desc>
    <defs></defs>
    <g id="Components" stroke="none" stroke-width="1" fill="none" fill-rule="evenodd">
        <g id="Artboard-#1" transform="translate(-204.000000, -317.000000)">
            <g id="Logotypes" transform="translate(48.000000, 233.000000)">
                <g id="Colored" transform="translate(0.000000, 76.000000)">
                    <g id="Fenix" transform="translate(156.000000, 2.000000)">
                        <g id="Fenix-Logo" transform="translate(0.000000, 6.000000)">
                            <path d="M2.81344697,21.4922005 C2.73405855,21.6066121 2.66128583,21.722766 2.58908839,21.8392102 C2.54306612,21.9150006 2.49618093,21.9939853 2.4475699,22.0781968 C2.38112525,22.1940603 2.31266712,22.3174738 2.24248316,22.4464046 L2.32503561,22.2710122 L2.32503561,22.2710122 L2.24248316,22.4464046 C1.89846667,23.0803144 1.52108404,23.8515761 1.18684729,24.5595339 L0.518373781,26.0102958 C0.351543044,26.3808267 0.249143488,26.6151671 0.249143488,26.6151671 C3.44050043,26.3622421 6.87031027,24.5066839 8.26133345,21.8180121 C8.7563605,20.861485 9.52608303,17.6945496 9.52608303,17.6945496 C7.09927108,17.6994862 4.30111692,19.3448058 2.81344697,21.4922005" id="Fill-1" fill="#EE5630"></path>
                            <path d="M4.38467611,17.8979933 L4.3662672,17.940099 C4.36597956,17.940099 4.36540427,17.9398087 4.36511663,17.9398087 L4.25495084,18.1735683 L2.05307274,22.8513752 C2.10599835,22.7712291 2.15345882,22.6980521 2.17560704,22.6585598 C2.22393043,22.5743482 2.27110326,22.4953636 2.31712553,22.4195732 C2.39622631,22.2891905 2.47187542,22.1712943 2.54119647,22.0725635 C4.02886641,19.9251688 6.82730821,18.2798491 9.25383251,18.2746222 C9.66458129,18.3219549 10.0816581,18.3483799 10.505063,18.3483799 C14.6801461,18.3483799 18.311591,15.998587 20.1729042,12.537492 L12.9396412,12.537492 C9.68327784,12.537492 5.77972624,14.9273579 4.38467611,17.8979933" id="Fill-4"></path>
                            <path d="M4.65692662,17.3175724 L4.63823007,17.3596781 C4.63794243,17.3596781 4.63765479,17.3593877 4.63736715,17.3593877 L4.52720132,17.5931474 L2.32503561,22.2709543 C2.37824886,22.1908081 2.42542169,22.1179216 2.4475699,22.0784293 C2.49618093,21.9939273 2.54306612,21.9149427 2.58908839,21.8391523 C2.66818917,21.7090599 2.74383828,21.5908734 2.81344697,21.4921426 C4.30111692,19.3447478 7.09927108,17.6994282 9.52608303,17.6944917 C9.9368318,17.741534 10.3539086,17.767959 10.7773135,17.767959 C14.9523965,17.767959 18.5838415,15.4181661 20.4448671,11.9570711 L13.2116041,11.9570711 C9.95524071,11.9570711 6.05197675,14.346937 4.65692662,17.3175724" id="Fill-6" fill="#F07630"></path>
                            <path d="M7.31284318,11.7249956 L4.36080204,17.9952721 C4.36137732,17.9952721 4.36166496,17.9955625 4.36195261,17.9955625 L4.38064915,17.9534567 C5.77541164,14.9828214 9.67896324,12.5929555 12.9353266,12.5929555 L20.1685897,12.5929555 C20.1688773,12.5926651 20.1691649,12.5923747 20.1691649,12.5920843 C20.1798076,12.5920843 20.1901626,12.5929555 20.2008052,12.5929555 L20.2013805,12.5929555 L20.2019558,12.5929555 C24.0407886,12.5929555 27.3423114,10.0294395 28.8210645,6.34997512 C28.8288307,6.34997512 28.8368846,6.35055589 28.8446509,6.35055589 C29.0491624,6.35055589 29.2513727,6.34097321 29.4524325,6.32645397 L15.7749008,6.32645397 C12.5185375,6.32645397 8.71048205,8.75581225 7.31284318,11.7249956" id="Fill-8"></path>
                            <path d="M7.5890631,11.0892274 L4.63730963,17.3592135 C4.63759727,17.3595039 4.63788488,17.3597943 4.63846017,17.3597943 L4.65686907,17.3176885 C6.0519192,14.3470532 9.95518316,11.9571872 13.2118342,11.9571872 L20.4450972,11.9571872 C20.4450972,11.9571872 20.4453849,11.9566065 20.4453849,11.9563161 C20.4560275,11.9563161 20.4663825,11.9571872 20.4773128,11.9571872 L20.4778881,11.9571872 L20.4781757,11.9571872 C24.3170085,11.9568968 27.6185313,9.39338085 29.0972844,5.71420689 C29.1053383,5.71420689 29.1131045,5.71478765 29.1211585,5.71478765 C29.3253823,5.71478765 29.5275926,5.70491457 29.7286524,5.69068573 L16.0511208,5.69068573 C12.7947574,5.69068573 8.98670197,8.12004401 7.5890631,11.0892274" id="Fill-10" fill="#F6A831"></path>
                            <path d="M13.0964046,0.644206448 C10.3051538,0.644206448 7.3818766,2.85751852 6.60036089,5.56274223 L0.518229961,26.6150511 C0.687074172,26.2395837 0.923801235,25.7209567 1.18670347,25.1642892 C1.52094022,24.4563314 1.89832285,23.6850697 2.24233934,23.0511599 L2.32517942,22.8757675 L4.52705751,18.1979606 L4.63722334,17.964201 L7.58897681,11.6939245 C8.98690332,8.72474108 12.7946711,6.2956732 16.0510345,6.2956732 L29.7285661,6.2956732 C33.1083267,6.05523467 36.0039907,3.82769376 37.4942492,0.644206448 L13.0964046,0.644206448 Z" id="Fill-12"></path>
                            <path d="M13.0963183,0.0395093482 C10.3050675,0.0395093482 7.38207792,2.25282141 6.60056221,4.95804514 L0.51814367,26.0100636 C0.686987879,25.6348866 0.924002584,25.1162596 1.18661717,24.5595921 C1.52085392,23.8513439 1.89823656,23.0800822 2.24254068,22.4464628 L2.32509313,22.2710705 L4.52725886,17.5932635 L4.63713702,17.3592135 L7.58917816,11.0892274 C8.98681703,8.12004398 12.7948724,5.6906857 16.0512358,5.6906857 L29.7287675,5.6906857 C33.1085283,5.45024717 36.0039042,3.22270627 37.494163,0.0395093482 L13.0963183,0.0395093482 Z" id="Fill-14" fill="#FBCE33"></path>
                        </g>
                    </g>
                </g>
            </g>
        </g>
    </g>
</svg>