<?xml version="1.0" encoding="UTF-8" standalone="no"?>
<svg width="38px" height="37px" viewBox="0 0 38 37" version="1.1" xmlns="http://www.w3.org/2000/svg" xmlns:xlink="http://www.w3.org/1999/xlink">
    <!-- Generator: Sketch 43.2 (39069) - http://www.bohemiancoding.com/sketch -->
    <title>Qazaq App</title>
    <desc>Created with Sketch.</desc>
    <defs>
        <linearGradient x1="34.6337594%" y1="28.5487017%" x2="96.7814642%" y2="89.1381665%" id="linearGradient-1">
            <stop stop-color="#39995D" offset="0%"></stop>
            <stop stop-color="#2BB152" offset="100%"></stop>
        </linearGradient>
        <linearGradient x1="50%" y1="0%" x2="50%" y2="100%" id="linearGradient-2">
            <stop stop-color="#7FC74C" offset="0%"></stop>
            <stop stop-color="#27B250" offset="100%"></stop>
        </linearGradient>
    </defs>
    <g id="Components" stroke="none" stroke-width="1" fill="none" fill-rule="evenodd">
        <g id="Artboard-#1" transform="translate(-48.000000, -311.000000)">
            <g id="Logotypes" transform="translate(48.000000, 233.000000)">
                <g id="Colored" transform="translate(0.000000, 76.000000)">
                    <g id="Qazaq-App" transform="translate(0.000000, 2.000000)">
                        <g id="QazaqApp-Logo">
                            <path d="M37.7630272,34.2857397 C37.8036441,34.3103336 37.8402751,34.3320455 37.8733,34.3510675 C37.190216,34.8250775 30.7040492,36.8035458 25.2803732,32.0338559 L32.2028863,27.2560958 C32.2028863,27.2560958 32.9706204,31.287775 37.7579027,34.2865084 C37.7601803,34.2861239 37.7609394,34.2861239 37.7630272,34.2857397" id="Fill-4" fill="url(#linearGradient-1)"></path>
                            <path d="M18.0544296,7.61957192 C12.1446802,7.61957192 7.33689969,12.4870613 7.33689969,18.4693485 C7.33689969,24.4518278 12.1446802,29.3193171 18.0544296,29.3193171 C23.964179,29.3193171 28.7719595,24.4518278 28.7719595,18.4693485 C28.7719595,12.4870613 23.964179,7.61957192 18.0544296,7.61957192 M18.0544296,36.7466913 C8.09912963,36.7466913 5.69394876e-05,28.5472977 5.69394876e-05,18.4693485 C5.69394876e-05,8.39159149 8.09912963,0.192197777 18.0544296,0.192197777 C28.0097296,0.192197777 36.1088023,8.39159149 36.1088023,18.4693485 C36.1088023,28.5472977 28.0097296,36.7466913 18.0544296,36.7466913" id="Fill-1" fill="url(#linearGradient-2)"></path>
                        </g>
                    </g>
                </g>
            </g>
        </g>
    </g>
</svg>