<?xml version="1.0" encoding="UTF-8" standalone="no"?>
<svg width="38px" height="38px" viewBox="0 0 38 38" version="1.1" xmlns="http://www.w3.org/2000/svg" xmlns:xlink="http://www.w3.org/1999/xlink">
    <!-- Generator: Sketch 43.2 (39069) - http://www.bohemiancoding.com/sketch -->
    <title>Kazakh Adventure</title>
    <desc>Created with Sketch.</desc>
    <defs></defs>
    <g id="Components" stroke="none" stroke-width="1" fill="none" fill-rule="evenodd">
        <g id="Artboard-#1" transform="translate(-360.000000, -311.000000)" fill="#519700">
            <g id="Logotypes" transform="translate(48.000000, 233.000000)">
                <g id="Colored" transform="translate(0.000000, 76.000000)">
                    <g id="Kazakh-Adventure" transform="translate(312.000000, 2.000000)">
                        <g id="Kazakh-Adventure-Logo">
                            <path d="M8.20223451,22.7596945 C8.23012073,22.8353701 8.29387821,22.8926151 8.37237731,22.9125105 C8.45149064,22.9324058 8.53478077,22.9125105 8.59546708,22.8589272 L13.4792412,18.5816665 L16.4759658,21.2665652 L16.8049496,20.9040544 L13.6454529,18.0732971 C13.5529493,17.990298 13.4122897,17.9893215 13.3185576,18.0714662 L8.54522275,22.2521794 C8.18098201,21.1507326 7.99658898,20.0004628 7.99658898,18.8278565 C7.99658898,12.7796636 12.9489116,7.8591599 19.0362158,7.8591599 C25.12352,7.8591599 30.0758426,12.7796636 30.0758426,18.8278565 C30.0758426,24.8760494 25.12352,29.7965531 19.0362158,29.7965531 C16.721168,29.7965531 14.5182794,29.0976519 12.6457258,27.7724737 L23.2298367,17.8491995 L27.8693914,21.9339756 L28.195304,21.5685354 L23.387572,17.3357036 C23.2922429,17.2518501 23.1485121,17.2541692 23.0560085,17.34083 L12.0937751,27.6185592 C12.0411967,27.6681145 12.0131876,27.7380534 12.0171187,27.8098233 C12.0211727,27.8817151 12.0569211,27.9479923 12.1147819,27.9913227 C14.1227127,29.4916534 16.5160139,30.284783 19.0362158,30.284783 C25.39452,30.284783 30.5672298,25.1453082 30.5672298,18.8278565 C30.5672298,12.5104048 25.39452,7.37092993 19.0362158,7.37092993 C12.6779116,7.37092993 7.50520182,12.5104048 7.50520182,18.8278565 C7.50520182,20.1790329 7.73971634,21.501892 8.20223451,22.7596945" id="Fill-1"></path>
                            <path d="M18.9392897,36.6172478 C9.10577265,36.6172478 1.10562111,28.6684977 1.10562111,18.8981616 C1.10562111,9.12782548 9.10577265,1.17919744 18.9392897,1.17919744 C28.7728067,1.17919744 36.7729583,9.12782548 36.7729583,18.8981616 C36.7729583,28.6684977 28.7728067,36.6172478 18.9392897,36.6172478 Z M18.9392897,0.0806800027 C8.49608403,0.0806800027 0,8.5221762 0,18.8981616 C0,29.2742691 8.49608403,37.7157652 18.9392897,37.7157652 C29.3824953,37.7157652 37.8785794,29.2742691 37.8785794,18.8981616 C37.8785794,8.5221762 29.3824953,0.0806800027 18.9392897,0.0806800027 L18.9392897,0.0806800027 Z" id="Fill-2"></path>
                            <polyline id="Fill-3" points="9.22038871 10.1615304 8.54067741 9.46384975 8.54767968 8.84123448 10.3212188 9.10292575 10.7947932 8.64752924 8.55603326 8.32395483 8.57802284 6.37896868 8.05211573 6.88477493 8.0284063 8.93827019 7.00718093 7.8901625 6.63458661 8.24827918 8.84804008 10.5198912 9.22038871 10.1615304"></polyline>
                            <path d="M13.1415354,6.14266538 L11.9337058,6.74184561 L11.8857955,5.15033796 L13.1415354,6.14266538 Z M11.9676115,7.8910169 L11.9496759,7.30941295 L13.588452,6.49626593 L14.0455649,6.86011932 L14.5540278,6.60794854 L11.8111047,4.43532517 L11.3595199,4.65930067 L11.4593943,8.14330974 L11.9676115,7.8910169 L11.9676115,7.8910169 Z" id="Fill-4"></path>
                            <polyline id="Fill-5" points="16.930499 3.45532556 15.5155496 5.97727748 15.5761131 6.35174986 18.1159705 5.94615281 18.033786 5.43802747 16.2566843 5.72168909 17.6717565 3.19973717 17.611193 2.82526478 15.0713356 3.23086183 15.1535201 3.73898717 16.930499 3.45532556"></polyline>
                            <path d="M21.2391045,3.66123655 L21.6960945,5.18964048 L20.3606271,4.99312791 L21.2391045,3.66123655 Z M20.046385,5.46732127 L21.858498,5.73389484 L22.0234812,6.29242992 L22.585751,6.3751849 L21.5900777,3.03251841 L21.0909512,2.95916185 L19.1636079,5.8718198 L19.7257548,5.95445272 L20.046385,5.46732127 L20.046385,5.46732127 Z" id="Fill-6"></path>
                            <polyline id="Fill-7" points="24.5759918 6.15304027 25.1670077 5.94627487 25.5265803 7.69108673 26.1195617 7.97718949 25.6590091 5.77710319 27.5051507 5.13190728 26.8470604 4.81443574 24.8974819 5.49502832 25.538865 4.18315439 25.0727842 3.95808037 23.6831413 6.80140967 24.1490992 7.02636163 24.5759918 6.15304027"></polyline>
                            <polyline id="Fill-8" points="27.4270201 8.99771219 28.337192 8.03199331 29.5148013 9.12794753 28.6043838 10.0935444 28.982629 10.4455582 31.1573858 8.1385495 30.7791405 7.78665775 29.8689686 8.75225457 28.691605 7.6564224 29.6017769 6.69082558 29.2237773 6.33881177 27.0488977 8.64569838 27.4270201 8.99771219"></polyline>
                            <path d="M5.24408379,26.0036165 L4.70060959,24.7757181 L6.30302313,24.8059884 L5.24408379,26.0036165 Z M6.8225422,24.3076276 L3.31489779,24.236346 L3.54351567,24.7531375 L4.12924917,24.7637565 L4.8665756,26.4300854 L4.47850259,26.8660747 L4.70724332,27.3827441 L7.02560795,24.7665638 L6.8225422,24.3076276 L6.8225422,24.3076276 Z" id="Fill-9"></path>
                            <path d="M8.61070009,29.6210344 C8.14302235,30.0294388 7.51711796,29.9990464 7.10902092,29.5377912 L6.71001454,29.0869108 L8.32090451,27.67971 L8.72003373,28.1305903 C9.12800792,28.5918456 9.07825497,29.212508 8.61070009,29.6210344 Z M8.36795483,26.9533458 L5.97883045,29.0401628 L6.72008798,29.8778434 C7.31417506,30.5492816 8.26328936,30.6098221 8.95270555,30.0074684 C9.64212174,29.4052367 9.70317659,28.4622206 9.10896667,27.7907823 L8.36795483,26.9533458 L8.36795483,26.9533458 Z" id="Fill-10"></path>
                            <polyline id="Fill-11" points="10.8686241 32.3841719 11.1460121 29.7234406 10.6567134 29.4278174 10.2923498 32.9081647 10.6613816 33.1311638 13.6044221 31.2092465 13.1111923 30.9111821 10.8686241 32.3841719"></polyline>
                            <polyline id="Fill-12" points="13.6864838 34.5395852 15.6189866 35.0674838 15.7563293 34.5711981 14.3233215 34.1796376 14.5390405 33.4003005 15.9719255 33.791861 16.109391 33.2953311 14.6765061 32.9040148 14.8921022 32.1246777 16.3249871 32.515994 16.4623299 32.0195862 14.5300727 31.4918096 13.6864838 34.5395852"></polyline>
                            <polyline id="Fill-13" points="19.9739054 32.2008416 19.9927009 34.5041885 18.0921382 32.2159767 17.6147556 32.2198825 17.6404306 35.3814157 18.158844 35.3772657 18.1400485 33.0783129 20.0406112 35.3620086 20.5179938 35.3582248 20.4920731 32.1966916 19.9739054 32.2008416"></polyline>
                            <polyline id="Fill-14" points="24.2476224 31.18691 21.4578946 32.0525417 21.612313 32.5439452 22.762159 32.1871711 23.5559949 34.713273 24.0505761 34.5598467 23.2567401 32.0336228 24.4020408 31.6783134 24.2476224 31.18691"></polyline>
                            <path d="M27.5307028,29.1315838 L27.1024589,29.4214704 L28.0700002,30.8323329 C28.3848566,31.2913912 28.2643439,31.8373543 27.8173044,32.140179 C27.3702649,32.4427595 26.8146289,32.3545119 26.4996497,31.8954537 L25.5321084,30.4845911 L25.1039873,30.7744777 L26.0715286,32.1853403 C26.5502626,32.883265 27.4217377,33.0310766 28.1091884,32.5656714 C28.8003244,32.097703 28.9768552,31.2403711 28.4982441,30.5423243 L27.5307028,29.1315838" id="Fill-15"></path>
                            <path d="M30.6701754,28.0239121 L30.3408232,28.5195876 L30.0625752,28.8653765 L29.1718131,28.1573209 L29.6628317,27.5473996 C29.8730226,27.2863187 30.2080258,27.2460397 30.4671097,27.4520727 C30.6553109,27.6015932 30.7247194,27.8186114 30.6701754,28.0239121 Z M30.7906881,27.0500154 C30.3044605,26.6637034 29.6558295,26.7321777 29.2582972,27.2257782 L28.443823,28.2376348 L30.9280308,30.2120368 L31.2514864,29.8099794 L30.4672325,29.1866318 L30.9582511,28.5767105 L30.9781523,28.5520549 L32.2110427,28.61821 L32.6112775,28.1209478 L31.2003822,28.0521074 C31.2592258,27.6823952 31.1207774,27.3123169 30.7906881,27.0500154 L30.7906881,27.0500154 Z" id="Fill-16"></path>
                            <polyline id="Fill-17" points="33.2134725 25.8853428 32.4687753 25.5596934 33.0676534 24.2077846 32.5934648 24.0004089 31.9945867 25.3520736 31.2497666 25.0264242 31.8486447 23.6746375 31.3743332 23.4672618 30.5667384 25.2901904 33.4789444 26.5639824 34.2866621 24.7411758 33.8123506 24.533556 33.2134725 25.8853428"></polyline>
                            <path d="M18.8164429,13.1980767 C19.4433301,13.1980767 19.9533899,13.7047373 19.9533899,14.3277188 C19.9533899,14.9505782 19.4433301,15.4573609 18.8164429,15.4573609 C18.1894329,15.4573609 17.6794959,14.9505782 17.6794959,14.3277188 C17.6794959,13.7047373 18.1894329,13.1980767 18.8164429,13.1980767 Z M17.1881087,14.3277188 C17.1881087,15.2197149 17.9185557,15.9455908 18.8164429,15.9455908 C19.7143301,15.9455908 20.4447771,15.2197149 20.4447771,14.3277188 C20.4447771,13.4356006 19.7143301,12.7098467 18.8164429,12.7098467 C17.9185557,12.7098467 17.1881087,13.4356006 17.1881087,14.3277188 L17.1881087,14.3277188 Z" id="Fill-18"></path>
                            <polygon id="Fill-19" points="18.6935961 12.0877197 19.1849833 12.0877197 19.1849833 11.3690452 18.6935961 11.3690452"></polygon>
                            <polyline id="Fill-20" points="16.6244876 12.3215818 17.1356531 12.8297072 17.4830638 12.4845286 16.9718983 11.9764032 16.6244876 12.3215818"></polyline>
                            <polyline id="Fill-21" points="15.8390052 13.9604478 15.8387595 14.4486778 16.5618358 14.4489219 16.5620814 13.9606919 15.8390052 13.9604478"></polyline>
                            <polyline id="Fill-22" points="17.3082529 15.9970991 16.960965 15.6516764 16.4493081 16.1594356 16.796596 16.5049803 17.3082529 15.9970991"></polyline>
                            <polyline id="Fill-23" points="18.4456913 17.2859042 18.9370784 17.2863924 18.9376927 16.5678399 18.4463055 16.5673517 18.4456913 17.2859042"></polyline>
                            <polyline id="Fill-24" points="20.1484706 16.1717634 20.6593904 16.6802549 21.0070469 16.3353204 20.4961271 15.8268289 20.1484706 16.1717634"></polyline>
                            <polyline id="Fill-25" points="21.7937577 14.6970648 21.7942491 14.2088348 21.0709272 14.2079804 21.0705587 14.6962104 21.7937577 14.6970648"></polyline>
                            <polyline id="Fill-26" points="20.3258614 12.6593149 20.6727807 13.0049817 21.1848062 12.4974667 20.8378868 12.1519219 20.3258614 12.6593149"></polyline>
                            <path d="M4.39963495,19.8177427 C4.45860141,19.8177427 4.51781357,19.7967489 4.56486389,19.7541508 L5.91654712,18.5308906 C5.96482591,18.4873161 5.99344921,18.4265314 5.99652038,18.3617189 C5.99959155,18.2971505 5.9766192,18.2340468 5.9327629,18.1860782 L5.33486757,17.5338029 L4.97160961,17.8626258 L5.40403031,18.334378 L4.41560504,19.2288153 L3.47066752,18.1980398 L5.78657522,16.1020686 L5.78596098,16.1013362 L6.49269857,15.4617549 C6.59294155,15.3709442 6.60031236,15.2165414 6.5087915,15.1168205 L5.23302758,13.7251209 C5.18904843,13.6772744 5.12787073,13.6487129 5.06276193,13.6456615 C5.00109284,13.6434645 4.93414134,13.6654348 4.88586255,13.7090094 L3.53430216,14.9323916 C3.48602337,14.9759661 3.45740007,15.0367508 3.45420605,15.1014412 C3.45125773,15.1661317 3.47410723,15.2293575 3.51808639,15.277204 L4.11598171,15.9293572 L4.47923967,15.6005343 L4.04669613,15.1289042 L5.0351214,14.2343448 L5.98018176,15.2651203 L3.66427407,17.3610916 L3.6648883,17.3618239 L2.95815071,18.0014052 C2.85790773,18.092216 2.85053693,18.2466187 2.94193494,18.3462176 L4.2178217,19.7380392 C4.26634619,19.7908901 4.3328063,19.8177427 4.39963495,19.8177427" id="Fill-27"></path>
                            <path d="M35.0650193,18.0014052 L34.3581589,17.3618239 L34.3587731,17.3610916 L32.0428654,15.2651203 L32.987803,14.2343448 L33.9762282,15.1289042 L33.5439304,15.6005343 L33.9071883,15.9293572 L34.5049608,15.277204 C34.5963588,15.1776051 34.5891109,15.0232024 34.488745,14.9323916 L33.1370618,13.7090094 C33.0890287,13.6654348 33.024657,13.6433424 32.9602853,13.6456615 C32.8950536,13.6487129 32.8338759,13.6772744 32.7900196,13.7251209 L31.5141329,15.1168205 C31.4227348,15.2165414 31.4301057,15.3709442 31.5303486,15.4617549 L32.2370862,16.1013362 L32.236472,16.1020686 L34.5525025,18.1980398 L33.6073193,19.2288153 L32.618894,18.334378 L33.0514376,17.8626258 L32.6881796,17.5338029 L32.0902843,18.1860782 C32.0463052,18.2340468 32.0234556,18.2971505 32.026404,18.3617189 C32.029598,18.4265314 32.0582213,18.4873161 32.1065001,18.5308906 L33.4580605,19.7541508 C33.5052336,19.7967489 33.5644458,19.8177427 33.6234122,19.8177427 C33.6902409,19.8177427 33.756701,19.7908901 33.8052255,19.7380392 L35.0811123,18.3462176 C35.1250914,18.2984931 35.1479409,18.2351453 35.1449926,18.1705769 C35.1419214,18.1058864 35.1131753,18.0451018 35.0650193,18.0014052" id="Fill-28"></path>
                            <polyline id="Fill-29" points="6.70743476 12.0035 6.60412061 11.3507365 5.94713597 11.4532648 6.05045012 12.1061504 6.70743476 12.0035"></polyline>
                            <polyline id="Fill-30" points="3.97777908 21.8180209 4.53734621 22.1752832 4.89679592 21.6193113 4.33735163 21.2621711 3.97777908 21.8180209"></polyline>
                            <polyline id="Fill-31" points="33.9679975 21.9077332 33.5716937 21.3771493 33.0376788 21.7710288 33.4339825 22.3016127 33.9679975 21.9077332"></polyline>
                            <polyline id="Fill-32" points="32.3910132 11.4974496 31.7503672 11.3201001 31.5718708 11.9566299 32.2125169 12.1339795 32.3910132 11.4974496"></polyline>
                        </g>
                    </g>
                </g>
            </g>
        </g>
    </g>
</svg>