<?xml version="1.0" encoding="UTF-8" standalone="no"?>
<svg width="24px" height="38px" viewBox="0 0 24 38" version="1.1" xmlns="http://www.w3.org/2000/svg" xmlns:xlink="http://www.w3.org/1999/xlink">
    <!-- Generator: Sketch 43.2 (39069) - http://www.bohemiancoding.com/sketch -->
    <title>TrainCafe</title>
    <desc>Created with Sketch.</desc>
    <defs></defs>
    <g id="Components" stroke="none" stroke-width="1" fill="none" fill-rule="evenodd">
        <g id="Artboard-#1" transform="translate(-517.000000, -234.000000)" fill-rule="nonzero" fill="#828282">
            <g id="Logotypes" transform="translate(48.000000, 233.000000)">
                <g id="B&amp;W">
                    <g id="TrainCafe" transform="translate(462.000000, 1.000000)">
                        <g id="Icon" transform="translate(7.000000, 0.000000)">
                            <path d="M23.5322963,28.7925185 L23.5322963,5.20148148 C23.5322963,3.77874074 22.3748889,2.62118519 20.952,2.62118519 L20.6763704,2.62118519 L20.0788889,1.4262963 C19.6391111,0.546518519 18.7548148,0 17.7711111,0 L5.78444444,0 C4.80081481,0 3.91651852,0.546518519 3.47659259,1.42637037 L2.87918519,2.62125926 L2.60348148,2.62125926 C1.18074074,2.62125926 0.0231851852,3.77874074 0.0231851852,5.20155556 L0.0231851852,28.7925926 C0.0231851852,30.2153333 1.18066667,31.3728889 2.60348148,31.3728889 L3.40681481,31.3728889 L0.10762963,37.0008889 C-0.064,37.2935556 0.0342222222,37.6699259 0.326888889,37.8415556 C0.424518519,37.8988148 0.531481481,37.926 0.637037037,37.926 C0.847851852,37.926 1.05325926,37.8173333 1.16755556,37.6222963 L4.83111111,31.3728889 L18.7245926,31.3728889 L22.3880741,37.6222963 C22.5024444,37.8174074 22.7077037,37.926 22.9185926,37.926 C23.0241481,37.926 23.131037,37.8988148 23.2287407,37.8415556 C23.5214074,37.6699259 23.6196296,37.2935556 23.448,37.0008889 L20.1488148,31.3728889 L20.9521481,31.3728889 C22.3748889,31.3728148 23.5322963,30.2152593 23.5322963,28.7925185 Z M8.57118519,30.1440741 L8.92474074,28.0227407 C8.98096296,27.6855556 9.26977778,27.4408889 9.61148148,27.4408889 L13.9440741,27.4408889 C14.2857778,27.4408889 14.5746667,27.6855556 14.6308148,28.0227407 L14.9844444,30.1440741 L8.57118519,30.1440741 Z M16.23,30.1440741 L15.8428148,27.8207407 C15.6874815,26.8886667 14.888963,26.2122222 13.9440741,26.2122222 L9.61148148,26.2122222 C8.66659259,26.2122222 7.86807407,26.8886667 7.71274074,27.8207407 L7.32555556,30.1440741 L2.60348148,30.1440741 C1.85822222,30.1440741 1.25192593,29.5377778 1.25192593,28.7925185 L1.25192593,5.20148148 C1.25192593,4.45622222 1.85822222,3.84992593 2.60348148,3.84992593 L15.0545185,3.84992593 C15.3937778,3.84992593 15.6688889,3.57488889 15.6688889,3.23555556 C15.6688889,2.8962963 15.3938519,2.62118519 15.0545185,2.62118519 L4.25288889,2.62118519 L4.57562963,1.97577778 C4.80607407,1.51496296 5.26925926,1.22866667 5.78451852,1.22866667 L17.7711852,1.22866667 C18.2864444,1.22866667 18.7496296,1.51496296 18.9800741,1.97577778 L19.3028148,2.62118519 L17.6757778,2.62118519 C17.3365185,2.62118519 17.0614074,2.89622222 17.0614074,3.23555556 C17.0614074,3.57481481 17.3364444,3.84992593 17.6757778,3.84992593 L20.9520741,3.84992593 C21.6973333,3.84992593 22.3036296,4.45622222 22.3036296,5.20148148 L22.3036296,28.7925185 C22.3036296,29.5377778 21.6973333,30.1440741 20.9520741,30.1440741 L16.23,30.1440741 L16.23,30.1440741 Z" id="Shape"></path>
                            <path d="M18.9860741,35.3865185 L4.56933333,35.3865185 C4.23007407,35.3865185 3.95496296,35.6615556 3.95496296,36.0008889 C3.95496296,36.3402222 4.23,36.6152593 4.56933333,36.6152593 L18.9860741,36.6152593 C19.3253333,36.6152593 19.6004444,36.3402222 19.6004444,36.0008889 C19.6004444,35.6615556 19.3254815,35.3865185 18.9860741,35.3865185 Z" id="Shape"></path>
                            <path d="M17.6754815,32.7653333 L5.88,32.7653333 C5.54074074,32.7653333 5.26562963,33.0403704 5.26562963,33.3797037 C5.26562963,33.719037 5.54066667,33.9940741 5.88,33.9940741 L17.6754815,33.9940741 C18.0147407,33.9940741 18.2898519,33.719037 18.2898519,33.3797037 C18.2898519,33.0403704 18.0147407,32.7653333 17.6754815,32.7653333 Z" id="Shape"></path>
                            <path d="M19.6414074,7.8637037 L3.91407407,7.8637037 C3.21392593,7.8637037 2.64444444,8.43325926 2.64444444,9.13333333 L2.64444444,15.6863704 C2.64444444,16.3864444 3.21407407,16.956 3.91407407,16.956 L19.6414074,16.956 C20.3414815,16.956 20.911037,16.3864444 20.911037,15.6863704 L20.911037,9.13333333 C20.911037,8.43318519 20.3415556,7.8637037 19.6414074,7.8637037 Z M11.1634074,15.7273333 L3.91407407,15.7273333 C3.89148148,15.7273333 3.87311111,15.708963 3.87311111,15.6863704 L3.87311111,9.13333333 C3.87311111,9.11074074 3.89148148,9.09237037 3.91407407,9.09237037 L11.1634074,9.09237037 L11.1634074,15.7273333 L11.1634074,15.7273333 Z M19.6823704,15.6863704 C19.6823704,15.708963 19.664,15.7273333 19.6414074,15.7273333 L12.3920741,15.7273333 L12.3920741,9.09237037 L19.6414074,9.09237037 C19.664,9.09237037 19.6823704,9.11074074 19.6823704,9.13333333 L19.6823704,15.6863704 Z" id="Shape"></path>
                            <path d="M13.7436296,5.24244444 L9.81177778,5.24244444 C9.47251852,5.24244444 9.19740741,5.51748148 9.19740741,5.85681481 C9.19740741,6.19614815 9.47244444,6.47118519 9.81177778,6.47118519 L13.7436296,6.47118519 C14.0828889,6.47118519 14.358,6.19614815 14.358,5.85681481 C14.358,5.51748148 14.082963,5.24244444 13.7436296,5.24244444 Z" id="Shape"></path>
                            <path d="M4.56940741,5.24244444 C4.23014815,5.24244444 3.95503704,5.51748148 3.95503704,5.85681481 C3.95503704,6.19614815 4.23007407,6.47118519 4.56940741,6.47118519 L4.576,6.47118519 C4.91525926,6.47118519 5.18703704,6.19614815 5.18703704,5.85681481 C5.18703704,5.51748148 4.90866667,5.24244444 4.56940741,5.24244444 Z" id="Shape"></path>
                            <path d="M18.9860741,5.24244444 C18.6468148,5.24244444 18.3717037,5.51748148 18.3717037,5.85681481 C18.3717037,6.19614815 18.6467407,6.47118519 18.9860741,6.47118519 L18.9926667,6.47118519 C19.3319259,6.47118519 19.6037037,6.19614815 19.6037037,5.85681481 C19.6037037,5.51748148 19.3254074,5.24244444 18.9860741,5.24244444 Z" id="Shape"></path>
                            <path d="M4.56933333,20.9697778 C3.50792593,20.9697778 2.64437037,21.8333333 2.64437037,22.8947407 C2.64437037,23.9561481 3.50792593,24.8197037 4.56933333,24.8197037 C5.63074074,24.8197037 6.4942963,23.9561481 6.4942963,22.8947407 C6.4942963,21.8333333 5.63081481,20.9697778 4.56933333,20.9697778 Z M4.56933333,23.591037 C4.18540741,23.591037 3.87303704,23.2787407 3.87303704,22.8947407 C3.87303704,22.5107407 4.18540741,22.1984444 4.56933333,22.1984444 C4.95325926,22.1984444 5.26562963,22.5107407 5.26562963,22.8947407 C5.26562963,23.2787407 4.95333333,23.591037 4.56933333,23.591037 Z" id="Shape"></path>
                            <path d="M4.56933333,26.2122222 C3.86925926,26.2122222 3.2997037,26.7817778 3.2997037,27.4818519 C3.2997037,28.1819259 3.86933333,28.7514815 4.56933333,28.7514815 C5.26948148,28.7514815 5.83896296,28.1819259 5.83896296,27.4818519 C5.83896296,26.7817778 5.26948148,26.2122222 4.56933333,26.2122222 Z" id="Shape"></path>
                            <path d="M18.9860741,20.9697778 C17.9246667,20.9697778 17.0611111,21.8333333 17.0611111,22.8947407 C17.0611111,23.9561481 17.9246667,24.8197037 18.9860741,24.8197037 C20.0474815,24.8197037 20.911037,23.9561481 20.911037,22.8947407 C20.911037,21.8333333 20.0475556,20.9697778 18.9860741,20.9697778 Z M18.9860741,23.591037 C18.6021481,23.591037 18.2897778,23.2787407 18.2897778,22.8947407 C18.2897778,22.5107407 18.6021481,22.1984444 18.9860741,22.1984444 C19.37,22.1984444 19.6823704,22.5107407 19.6823704,22.8947407 C19.6823704,23.2787407 19.3701481,23.591037 18.9860741,23.591037 Z" id="Shape"></path>
                            <path d="M18.9860741,26.2122222 C18.286,26.2122222 17.7164444,26.7817778 17.7164444,27.4818519 C17.7164444,28.1819259 18.286,28.7514815 18.9860741,28.7514815 C19.6862222,28.7514815 20.2557037,28.1819259 20.2557037,27.4818519 C20.2557037,26.7817778 19.6862222,26.2122222 18.9860741,26.2122222 Z" id="Shape"></path>
                            <path d="M15.0542963,23.591037 L8.50125926,23.591037 C8.162,23.591037 7.88688889,23.8660741 7.88688889,24.2054074 C7.88688889,24.5446667 8.16192593,24.8197778 8.50125926,24.8197778 L15.0542963,24.8197778 C15.3935556,24.8197778 15.6686667,24.5447407 15.6686667,24.2054074 C15.6685926,23.8660741 15.3936296,23.591037 15.0542963,23.591037 Z" id="Shape"></path>
                            <path d="M12.433037,28.1781481 L11.1224444,28.1781481 C10.7831852,28.1781481 10.5080741,28.4531852 10.5080741,28.7925185 C10.5080741,29.1317778 10.7831111,29.4068889 11.1224444,29.4068889 L12.433037,29.4068889 C12.7722963,29.4068889 13.0474074,29.1318519 13.0474074,28.7925185 C13.0474074,28.4532593 12.7724444,28.1781481 12.433037,28.1781481 Z" id="Shape"></path>
                            <path d="M15.0543704,20.9697778 L8.50125926,20.9697778 C8.162,20.9697778 7.88688889,21.2448148 7.88688889,21.5841481 C7.88688889,21.9234074 8.16192593,22.1985185 8.50125926,22.1985185 L15.0543704,22.1985185 C15.3936296,22.1985185 15.6687407,21.9234815 15.6687407,21.5841481 C15.6686667,21.2448889 15.3937037,20.9697778 15.0543704,20.9697778 Z" id="Shape"></path>
                        </g>
                    </g>
                </g>
            </g>
        </g>
    </g>
</svg>