<?xml version="1.0" encoding="UTF-8" standalone="no"?>
<svg width="38px" height="38px" viewBox="0 0 38 38" version="1.1" xmlns="http://www.w3.org/2000/svg" xmlns:xlink="http://www.w3.org/1999/xlink">
    <!-- Generator: Sketch 43.2 (39069) - http://www.bohemiancoding.com/sketch -->
    <title>Albumen</title>
    <desc>Created with Sketch.</desc>
    <defs></defs>
    <g id="Components" stroke="none" stroke-width="1" fill="none" fill-rule="evenodd">
        <g id="Artboard-#1" transform="translate(-438.000000, -311.000000)">
            <g id="Logotypes" transform="translate(48.000000, 233.000000)">
                <g id="Colored" transform="translate(0.000000, 76.000000)">
                    <g id="Albumen" transform="translate(390.000000, 2.000000)">
                        <circle id="Oval" fill="#3498DB" cx="19" cy="19" r="19"></circle>
                        <path d="M8.00300705,29.7233978 C8.80671588,29.585274 9.34234104,29.5719526 12.3729309,25.8673882 C11.9531475,27.6144004 9.79454863,29.2877974 9.88362092,29.3959685 C12.2436014,32.2619742 15.413644,33.9438202 19.0446084,33.9438202 C22.5388757,33.9438202 25.7389829,32.2272046 28.2157469,29.3789458 C28.4242821,29.139132 25.8243837,27.2890532 25.8243837,26.1677527 C28.9581823,29.7913302 29.1353567,29.3789461 30.2719525,29.7913302 C30.7269807,29.0275306 30.9005472,27.374196 30.9004712,26.7975927 C30.9001594,24.430836 30.0989355,22.4477305 29.4139155,20.2917948 C27.538113,15.7103017 26.2294859,13.5657227 22.9273453,11.3733332 C20.9660057,10.4833104 20.4150003,7.57847811 20.3363256,4.33991641 C19.0446078,5.40654024 18.4755468,7.92435569 18.4755468,7.92435569 C18.4755468,7.92435569 18.0981872,7.67049025 17.5870507,5.3660268 C16.5717817,6.24269496 16.5717817,8.85512428 16.5717817,8.85512428 C16.5717817,8.85512428 16.1430192,7.92435569 15.0842166,6.68728528 C15.0691494,7.26548646 15.2032652,10.2275895 15.2032652,10.2275895 C15.2032652,10.2275895 14.9845161,10.0331038 13.8974139,9.41601523 C14.3863858,12.3074793 15.3475915,13.0059524 16.8350814,13.8766832 C16.8350814,13.8766832 16.0863214,14.1554256 13.6659567,12.5937255 C11.6144564,14.1554256 10.0691628,17.0132664 8.69730233,20.291795 C7.80451411,22.425417 7.10478649,24.2054132 7.10478649,26.9157265 C7.10478649,27.2397367 7.02394052,28.2129556 8.00300705,29.7233978 Z" id="Oval-75" fill="#ECF0F1"></path>
                        <path d="M26.9464048,30.6812067 C24.6860025,32.7420661 21.968272,33.9438202 19.0446084,33.9438202 C15.9860715,33.9438202 13.254582,32.7504651 11.0588173,30.6612165 C11.9809031,27.14982 15.1867851,24.5589211 19,24.5589211 C22.8204475,24.5589211 26.031256,27.1596576 26.9464048,30.6812067 Z" id="Oval-75-Copy" fill="#FFFFFF" opacity="0.553696362"></path>
                        <path d="M14.8514171,21.6093813 C15.1716922,21.6093813 15.4313265,21.1892051 15.4313265,20.6708914 C15.4313265,20.1525778 15.1716922,19.7324015 14.8514171,19.7324015 C14.5311419,19.7324015 14.2715076,20.1525778 14.2715076,20.6708914 C14.2715076,21.1892051 14.5311419,21.6093813 14.8514171,21.6093813 Z" id="Oval-78" fill="#5B6875"></path>
                        <path d="M23.1485829,21.6093813 C23.4688581,21.6093813 23.7284924,21.1892051 23.7284924,20.6708914 C23.7284924,20.1525778 23.4688581,19.7324015 23.1485829,19.7324015 C22.8283078,19.7324015 22.5686735,20.1525778 22.5686735,20.6708914 C22.5686735,21.1892051 22.8283078,21.6093813 23.1485829,21.6093813 Z" id="Oval-78-Copy" fill="#5B6875"></path>
                        <polygon id="Rectangle-143" fill="#EF852A" points="19 20.344406 20.3382526 21.9669013 17.6617474 21.9669013"></polygon>
                        <polygon id="Rectangle-143-Copy" fill="#C06928" transform="translate(19.000000, 22.782075) scale(1, -1) translate(-19.000000, -22.782075) " points="19 21.9669013 20.3382526 23.5972494 17.6617474 23.5972494"></polygon>
                    </g>
                </g>
            </g>
        </g>
    </g>
</svg>