<?xml version="1.0" encoding="UTF-8" standalone="no"?>
<svg width="90px" height="90px" viewBox="0 0 90 90" version="1.1" xmlns="http://www.w3.org/2000/svg" xmlns:xlink="http://www.w3.org/1999/xlink">
    <!-- Generator: Sketch 43.1 (39012) - http://www.bohemiancoding.com/sketch -->
    <title>Icon</title>
    <desc>Created with Sketch.</desc>
    <defs></defs>
    <g id="Курс" stroke="none" stroke-width="1" fill="none" fill-rule="evenodd">
        <g id="Курс-(Desktop)" transform="translate(-855.000000, -833.000000)" fill-rule="nonzero" fill="#4F5362">
            <g id="Information" transform="translate(124.000000, 805.000000)">
                <g id="Tab" transform="translate(713.000000, 0.000000)">
                    <g id="Stat" transform="translate(18.000000, 0.000000)">
                        <g id="Icon" transform="translate(0.000000, 28.000000)">
                            <path d="M51,44.8185 C51,42.03 49.08,39.702 46.5,39.0315 L46.5,23.8185 C46.5,22.989 45.828,22.3185 45,22.3185 C44.172,22.3185 43.5,22.989 43.5,23.8185 L43.5,39.0315 C41.4015,39.5775 39.759,41.22 39.213,43.3185 L28.5,43.3185 C27.672,43.3185 27,43.989 27,44.8185 C27,45.648 27.672,46.3185 28.5,46.3185 L39.213,46.3185 C39.8835,48.9 42.213,50.8185 45,50.8185 C48.309,50.8185 51,48.1275 51,44.8185 Z M45,47.8185 C43.3455,47.8185 42,46.473 42,44.8185 C42,43.164 43.3455,41.8185 45,41.8185 C46.6545,41.8185 48,43.164 48,44.8185 C48,46.473 46.6545,47.8185 45,47.8185 Z" id="Shape"></path>
                            <path d="M45,14.8185 C45.828,14.8185 46.5,14.148 46.5,13.3185 L46.5,11.8185 C46.5,10.989 45.828,10.3185 45,10.3185 C44.172,10.3185 43.5,10.989 43.5,11.8185 L43.5,13.3185 C43.5,14.148 44.172,14.8185 45,14.8185 Z" id="Shape"></path>
                            <path d="M43.5,76.3185 L43.5,77.8185 C43.5,78.648 44.172,79.3185 45,79.3185 C45.828,79.3185 46.5,78.648 46.5,77.8185 L46.5,76.3185 C46.5,75.489 45.828,74.8185 45,74.8185 C44.172,74.8185 43.5,75.489 43.5,76.3185 Z" id="Shape"></path>
                            <path d="M78,46.3185 C78.828,46.3185 79.5,45.648 79.5,44.8185 C79.5,43.989 78.828,43.3185 78,43.3185 L76.5,43.3185 C75.672,43.3185 75,43.989 75,44.8185 C75,45.648 75.672,46.3185 76.5,46.3185 L78,46.3185 Z" id="Shape"></path>
                            <path d="M12,43.3185 C11.172,43.3185 10.5,43.989 10.5,44.8185 C10.5,45.648 11.172,46.3185 12,46.3185 L13.5,46.3185 C14.328,46.3185 15,45.648 15,44.8185 C15,43.989 14.328,43.3185 13.5,43.3185 L12,43.3185 Z" id="Shape"></path>
                            <path d="M67.2735,24.0435 C67.6575,24.0435 68.0415,23.8965 68.334,23.604 L69.3945,22.5435 C69.981,21.957 69.981,21.009 69.3945,20.4225 C68.808,19.836 67.86,19.836 67.2735,20.4225 L66.213,21.483 C65.6265,22.0695 65.6265,23.0175 66.213,23.604 C66.5055,23.898 66.8895,24.0435 67.2735,24.0435 Z" id="Shape"></path>
                            <path d="M21.666,66.0315 L20.6055,67.092 C20.019,67.6785 20.019,68.6265 20.6055,69.213 C20.898,69.5055 21.282,69.6525 21.666,69.6525 C22.05,69.6525 22.434,69.5055 22.7265,69.213 L23.787,68.1525 C24.3735,67.566 24.3735,66.618 23.787,66.0315 C23.2005,65.445 22.251,65.445 21.666,66.0315 Z" id="Shape"></path>
                            <path d="M23.787,21.483 L22.7265,20.4225 C22.14,19.836 21.192,19.836 20.6055,20.4225 C20.019,21.009 20.019,21.957 20.6055,22.5435 L21.666,23.604 C21.9585,23.8965 22.3425,24.0435 22.7265,24.0435 C23.1105,24.0435 23.4945,23.8965 23.787,23.604 C24.3735,23.019 24.3735,22.0695 23.787,21.483 Z" id="Shape"></path>
                            <path d="M45,0 C20.187,0 0,20.187 0,45 C0,69.813 20.187,90 45,90 C50.364,90 55.6185,89.0625 60.621,87.2115 C61.398,86.925 61.794,86.061 61.5075,85.2855 C61.2195,84.5055 60.3585,84.1095 59.58,84.399 C54.912,86.124 50.007,87 45,87 C21.8415,87 3,68.1585 3,45 C3,21.8415 21.8415,3 45,3 C68.1585,3 87,21.8415 87,45 C87,50.01 86.124,54.9135 84.3975,59.5785 C84.111,60.357 84.507,61.2195 85.284,61.506 C86.061,61.7985 86.9235,61.398 87.2115,60.621 C89.0625,55.6215 90,50.367 90,45 C90,20.187 69.813,0 45,0 Z" id="Shape"></path>
                            <path d="M75,61.6515 L75,60 C75,59.1705 74.328,58.5 73.5,58.5 C72.672,58.5 72,59.1705 72,60 L72,61.6575 C70.3635,61.9905 68.8725,62.859 67.773,64.1595 C66.8565,65.2425 66.432,66.6285 66.582,68.064 C66.735,69.5325 67.491,70.8945 68.6565,71.8005 L72,74.4 L72,82.557 C70.2585,81.936 69,80.286 69,78.333 C69,77.5035 68.328,76.833 67.5,76.833 C66.672,76.833 66,77.5035 66,78.333 C66,81.954 68.5815,84.984 72,85.6815 L72,87 C72,87.8295 72.672,88.5 73.5,88.5 C74.328,88.5 75,87.8295 75,87 L75,85.677 C76.6365,85.344 78.1275,84.4755 79.2285,83.175 C80.145,82.089 80.568,80.703 80.418,79.2675 C80.2635,77.8005 79.509,76.44 78.3435,75.5355 L75,72.933 L75,64.776 C76.7415,65.397 78,67.047 78,69 C78,69.8295 78.672,70.5 79.5,70.5 C80.328,70.5 81,69.8295 81,69 C81,65.379 78.4185,62.349 75,61.6515 Z M76.5015,77.9025 C77.025,78.309 77.3655,78.9225 77.4345,79.5795 C77.499,80.1945 77.322,80.784 76.938,81.237 C76.416,81.8535 75.741,82.2855 75,82.5495 L75,76.7325 L76.5015,77.9025 Z M70.4985,69.432 C69.9735,69.024 69.6345,68.4105 69.5655,67.752 C69.5025,67.1385 69.678,66.5505 70.062,66.096 C70.584,65.4795 71.259,65.0475 72,64.7835 L72,70.599 L70.4985,69.432 Z" id="Shape"></path>
                        </g>
                    </g>
                </g>
            </g>
        </g>
    </g>
</svg>