<?xml version="1.0" encoding="UTF-8" standalone="no"?>
<svg width="38px" height="38px" viewBox="0 0 38 38" version="1.1" xmlns="http://www.w3.org/2000/svg" xmlns:xlink="http://www.w3.org/1999/xlink">
    <!-- Generator: Sketch 43.2 (39069) - http://www.bohemiancoding.com/sketch -->
    <title>LaunchApp</title>
    <desc>Created with Sketch.</desc>
    <defs></defs>
    <g id="Components" stroke="none" stroke-width="1" fill="none" fill-rule="evenodd">
        <g id="Artboard-#1" transform="translate(-580.000000, -234.000000)">
            <g id="Logotypes" transform="translate(48.000000, 233.000000)">
                <g id="B&amp;W">
                    <g id="LaunchApp" transform="translate(532.000000, 1.000000)">
                        <g id="Group-7-Copy">
                            <g id="Group-3-Copy" fill="#828282">
                                <rect id="Rectangle-5" x="0" y="0" width="38" height="38" rx="6"></rect>
                            </g>
                            <path d="M26.6695685,34.5671467 C27.3411708,34.5671467 27.4371322,34.1878777 27.4371322,34.1878777 C27.4371322,34.1878777 27.1188619,16.4451387 27.1188619,15.905986 C27.118862,14.6761415 29.2603037,14.3405726 29.6473237,12.6376402 C30.0343437,10.9347077 29.0734535,4.1364004 29.0734535,4.1364004 C29.0734535,4.1364004 29.0393832,3.79552679 28.7103977,3.79552679 C28.3814122,3.79552679 28.3814122,4.07914804 28.3814123,4.34222017 C28.3814123,4.34222017 28.5766285,9.31160126 28.5766285,11.1689588 C28.5766285,11.6606376 28.4440688,11.7025552 28.2922096,11.7222192 C28.1403504,11.7418832 27.9033036,11.722219 27.8365235,11.180251 C27.7448549,9.94451132 27.7510193,7.66004046 27.7510192,4.22511708 C27.7510192,4.22511708 27.7861296,3.80697811 27.4012407,3.80697811 C26.9946254,3.80697811 27.0283957,4.1985587 27.0283958,4.1985587 C27.0283957,7.92926586 27.1139,10.1819626 27.0487031,11.2547168 C26.9901887,11.6742994 26.9106412,11.7025083 26.7346408,11.7222192 C26.5586403,11.7419301 26.4139082,11.6287304 26.3772951,11.206269 C26.3295057,10.1212046 26.3725403,8.02064844 26.4129191,4.26733522 C26.4129191,4.26733522 26.4547962,3.81492423 26.0406444,3.81492423 C25.6665306,3.81492423 25.6845939,4.28852335 25.6845939,4.28852335 C25.6845939,4.28852335 25.5896856,10.6388329 25.5266277,11.1802507 C25.4635698,11.7216685 25.243547,11.7222192 25.1435875,11.7222192 C25.0005533,11.7222192 24.8266503,11.6809598 24.7724075,11.1802507 C24.6908572,9.90310678 25.0511133,4.34222018 25.0511133,4.34222018 C25.0511133,4.34222018 25.1277673,3.78894138 24.7219982,3.78894138 C24.3162291,3.78894138 24.3162291,4.30719513 24.3162291,4.30719513 C24.3162291,4.30719513 23.462772,11.3225336 23.7328901,12.361866 C23.9104148,14.4181474 26.1748253,14.7998589 26.2575564,15.7314617 C26.3402876,16.6630645 25.8575824,34.1878764 25.8575824,34.1878764 C25.8575824,34.1878764 25.9979662,34.5671467 26.6695685,34.5671467 Z" id="Path-8" fill="#FFFFFF"></path>
                            <path d="M12.18515,34.6225747 C12.8798775,34.6225747 13.0292167,34.2377775 13.0292167,34.2377775 C13.0292167,34.2377775 12.7064889,16.1195766 12.7064889,15.1785121 C12.7064889,14.8476049 16.1048153,14.6676636 16.1048154,10.8789317 C16.1048154,7.09019976 14.0900441,4.09580838 12.2621099,4.09580838 C10.4341757,4.09580838 8.42397847,7.09734582 8.42397847,10.9184818 C8.42397847,14.7396177 11.7573987,14.7557767 11.7096659,15.1587843 L11.3460717,34.2377768 C11.3460717,34.2377768 11.4904225,34.6225747 12.18515,34.6225747 Z" id="Path-9" fill="#FFFFFF"></path>
                        </g>
                    </g>
                </g>
            </g>
        </g>
    </g>
</svg>