<?xml version="1.0" encoding="UTF-8" standalone="no"?>
<svg width="24px" height="38px" viewBox="0 0 24 38" version="1.1" xmlns="http://www.w3.org/2000/svg" xmlns:xlink="http://www.w3.org/1999/xlink">
    <!-- Generator: Sketch 43.2 (39069) - http://www.bohemiancoding.com/sketch -->
    <title>TrainCafe</title>
    <desc>Created with Sketch.</desc>
    <defs></defs>
    <g id="Components" stroke="none" stroke-width="1" fill="none" fill-rule="evenodd">
        <g id="Artboard-#1" transform="translate(-523.000000, -311.000000)" fill-rule="nonzero">
            <g id="Logotypes" transform="translate(48.000000, 233.000000)">
                <g id="Colored" transform="translate(0.000000, 76.000000)">
                    <g id="TrainCafe" transform="translate(468.000000, 2.000000)">
                        <g id="Group-4" transform="translate(7.000000, 0.000000)">
                            <g id="Group" transform="translate(0.667969, 29.984375)" fill="#5B5D6E">
                                <path d="M4.32532031,0.0156601563 C3.22146484,2.05578516 0.0215976562,8.015625 0.0215976562,8.015625 L2.02157031,8.015625 C2.25075781,8.015625 2.47408203,7.89709766 2.59839844,7.68490625 L7.07208203,0.0156601563 L4.32532031,0.0156601563 Z" id="Shape"></path>
                                <path d="M18.3850234,0.0156601563 C19.4889531,2.05578516 22.6888203,8.015625 22.6888203,8.015625 L20.6888477,8.015625 C20.4596602,8.015625 20.2363359,7.89709766 20.1120195,7.68490625 L15.6382617,0.0156601563 L18.3850234,0.0156601563 Z" id="Shape"></path>
                            </g>
                            <g id="Group" transform="translate(0.000000, 28.648438)" fill="#707487">
                                <path d="M20.9998984,8.01822266 L3.04705078,8.01822266 C2.88814844,8.01822266 2.78862109,7.84648047 2.86766406,7.70858203 L3.30948828,6.93767188 C3.39907031,6.78136719 3.56539453,6.68495703 3.74559766,6.68495703 L20.3015,6.68495703 C20.4816289,6.68495703 20.6480273,6.78136719 20.7376094,6.93767188 L21.1794336,7.70858203 C21.2583281,7.84640625 21.1588008,8.01822266 20.9998984,8.01822266 Z" id="Shape"></path>
                                <path d="M19.543207,5.35154297 L4.50366797,5.35154297 C4.34550781,5.35154297 4.24583203,5.18121094 4.32339062,5.0433125 L4.75608594,4.27440625 C4.84507422,4.11617187 5.01258594,4.01820312 5.19419922,4.01820312 L18.8528984,4.01820312 C19.0345117,4.01820312 19.201875,4.11609766 19.2910117,4.27440625 L19.723707,5.0433125 C19.801043,5.18113672 19.7013672,5.35154297 19.543207,5.35154297 Z" id="Shape"></path>
                                <path d="M18.1254805,2.68486328 L5.92146875,2.68486328 C5.76271484,2.68486328 5.66311328,2.51334375 5.74185938,2.37544531 L6.32677734,1.35152344 L17.7200234,1.35152344 L18.3049414,2.37544531 C18.3838359,2.51334375 18.2842344,2.68486328 18.1254805,2.68486328 Z" id="Shape"></path>
                                <path d="M0.689492187,9.3515625 C0.575566406,9.3515625 0.459636719,9.32224609 0.354246094,9.26071875 C0.036515625,9.07517187 -0.070953125,8.66696875 0.114,8.34894141 L4.78065234,0.348976562 C4.96679297,0.0312460937 5.37573828,-0.0762226563 5.69272656,0.109027344 C6.01045703,0.294574219 6.11792578,0.702777344 5.93297266,1.02080469 L1.26632031,9.02076953 C1.14200391,9.23303516 0.918679687,9.3515625 0.689492187,9.3515625 Z" id="Shape"></path>
                                <path d="M23.3573828,9.3515625 C23.1281953,9.3515625 22.9048711,9.23303516 22.7805547,9.02084375 L18.1139023,1.02087891 C17.9289492,0.702851562 18.036418,0.294648437 18.3541484,0.109101562 C18.6724727,-0.0761484375 19.080082,0.0312460937 19.2662227,0.349050781 L23.932875,8.34901562 C24.1177539,8.66704297 24.0103594,9.07524609 23.6926289,9.26079297 C23.5872383,9.32224609 23.4713828,9.3515625 23.3573828,9.3515625 Z" id="Shape"></path>
                            </g>
                            <g id="Group-3">
                                <path d="M20.6901094,2.66667969 L19.9095508,1.1055625 C19.5708164,0.428019531 18.878207,0 18.1207305,0 L5.92621875,0 C5.16866797,0 4.47613281,0.428019531 4.13739844,1.1055625 L3.35683984,2.66667969 L3.35683984,3.3333125 L20.6901836,3.3333125 L20.6901836,2.66667969 L20.6901094,2.66667969 Z" id="Shape" fill="#00AAF0"></path>
                                <path d="M21.3568164,2.66667969 L2.69013281,2.66667969 C1.58553516,2.66667969 0.690160156,3.56212891 0.690160156,4.66665234 L0.690160156,28.6666211 C0.690160156,29.7712187 1.58560938,30.6665938 2.69013281,30.6665938 L21.3568164,30.6665938 C22.4614141,30.6665938 23.3567891,29.7711445 23.3567891,28.6666211 L23.3567891,4.66665234 C23.3567891,3.56205469 22.4614141,2.66667969 21.3568164,2.66667969 Z" id="Shape" fill="#00C3FF"></path>
                                <path d="M6.02344531,26.0000156 C5.28704687,26.0000156 4.69010547,25.4030742 4.69010547,24.6666758 L4.69010547,4.66665234 C4.69010547,3.56205469 5.58555469,2.66667969 6.69007813,2.66667969 L2.69005859,2.66667969 C1.58546094,2.66667969 0.690085937,3.56212891 0.690085937,4.66665234 L0.690085937,28.6666211 C0.690085937,29.7712187 1.58553516,30.6665938 2.69005859,30.6665938 L21.3567422,30.6665938 C22.4613398,30.6665938 23.3567148,29.7711445 23.3567148,28.6666211 L23.3567148,25.9999414 L6.02344531,25.9999414 L6.02344531,26.0000156 Z" id="Shape" fill="#00AAF0"></path>
                                <path d="M15.5424453,27.7807461 C15.4352734,27.1378633 14.8790781,26.6665742 14.2272891,26.6665742 L9.81958594,26.6665742 C9.16772266,26.6665742 8.61152734,27.1377148 8.50442969,27.7807461 L8.02341797,30.666668 L16.0233828,30.666668 L15.5424453,27.7807461 Z" id="Shape" fill="#464655"></path>
                                <path d="M20.0234766,16.0000039 L4.02347266,16.0000039 C3.65527344,16.0000039 3.35683984,15.7014961 3.35683984,15.3333711 L3.35683984,8.66667188 C3.35683984,8.29847266 3.65534766,8.00003906 4.02347266,8.00003906 L20.0234766,8.00003906 C20.3916758,8.00003906 20.6901094,8.29854688 20.6901094,8.66667188 L20.6901094,15.3333711 C20.6901094,15.7014961 20.3916758,16.0000039 20.0234766,16.0000039 Z" id="Shape" fill="#707487"></path>
                                <path d="M14.0234844,6.33330859 L10.0234648,6.33330859 C9.47135156,6.33330859 9.02344141,5.88569531 9.02344141,5.33328516 C9.02344141,4.780875 9.47135156,4.33326172 10.0234648,4.33326172 L14.0234844,4.33326172 C14.5755977,4.33326172 15.0235078,4.780875 15.0235078,5.33328516 C15.0235078,5.88576953 14.5755977,6.33330859 14.0234844,6.33330859 Z" id="Shape" fill="#FFDC64"></path>
                                <circle id="Oval" fill="#FFFFFF" cx="4.69017969" cy="22.6667031" r="1.33333984"></circle>
                                <circle id="Oval" fill="#5B5D6E" cx="4.69017969" cy="27.3333555" r="1.00002344"></circle>
                                <circle id="Oval" fill="#FFFFFF" cx="19.3568437" cy="22.6667031" r="1.33333984"></circle>
                                <circle id="Oval" fill="#5B5D6E" cx="19.3568437" cy="27.3333555" r="1.00002344"></circle>
                                <path d="M15.3568242,24.6666758 L8.690125,24.6666758 C8.32162891,24.6666758 8.02349219,24.368168 8.02349219,24.000043 C8.02349219,23.6318438 8.32162891,23.3334102 8.690125,23.3334102 L15.3568242,23.3334102 C15.7253203,23.3334102 16.023457,23.631918 16.023457,24.000043 C16.023457,24.368168 15.7253203,24.6666758 15.3568242,24.6666758 Z" id="Shape" fill="#00AAF0"></path>
                                <path d="M12.6901445,29.6666445 L11.3568047,29.6666445 C10.8046914,29.6666445 10.3567812,29.2190313 10.3567812,28.6666211 C10.3567812,28.1142109 10.8046914,27.6665977 11.3568047,27.6665977 L12.6901445,27.6665977 C13.2422578,27.6665977 13.690168,28.1142109 13.690168,28.6666211 C13.690168,29.2190313 13.2422578,29.6666445 12.6901445,29.6666445 Z" id="Shape" fill="#5B5D6E"></path>
                                <path d="M15.3568242,21.9999961 L8.690125,21.9999961 C8.32162891,21.9999961 8.02349219,21.7014883 8.02349219,21.3333633 C8.02349219,20.9652383 8.32162891,20.6667305 8.690125,20.6667305 L15.3568242,20.6667305 C15.7253203,20.6667305 16.023457,20.9652383 16.023457,21.3333633 C16.023457,21.7014883 15.7253203,21.9999961 15.3568242,21.9999961 Z" id="Shape" fill="#00AAF0"></path>
                                <path d="M16.023457,7.99996484 L4.02347266,7.99996484 C3.65527344,7.99996484 3.35683984,8.29847266 3.35683984,8.66659766 L3.35683984,15.3332969 C3.35683984,15.7014961 3.65534766,15.9999297 4.02347266,15.9999297 L8.02349219,15.9999297 L11.3568047,12.6666172 L11.3568047,15.9999297 L12.6901445,15.9999297 L12.6901445,11.3332773 L16.023457,7.99996484 Z" id="Shape" fill="#5B5D6E"></path>
                            </g>
                            <g id="Group" transform="translate(3.636719, 4.304688)" fill="#FFFFFF">
                                <circle id="Oval" cx="1.05346094" cy="1.02867187" r="1.00002344"></circle>
                                <circle id="Oval" cx="15.720125" cy="1.02867187" r="1.00002344"></circle>
                            </g>
                        </g>
                    </g>
                </g>
            </g>
        </g>
    </g>
</svg>