<?xml version="1.0" encoding="UTF-8" standalone="no"?>
<svg width="32px" height="31px" viewBox="0 0 32 31" version="1.1" xmlns="http://www.w3.org/2000/svg" xmlns:xlink="http://www.w3.org/1999/xlink">
    <!-- Generator: Sketch 43.2 (39069) - http://www.bohemiancoding.com/sketch -->
    <title>I Am Star</title>
    <desc>Created with Sketch.</desc>
    <defs>
        <linearGradient x1="4.66299988%" y1="85.2359218%" x2="20.0035375%" y2="81.3274999%" id="linearGradient-1">
            <stop stop-color="#3973A7" offset="0%"></stop>
            <stop stop-color="#2595FA" offset="100%"></stop>
        </linearGradient>
        <linearGradient x1="4.94107166%" y1="85.2359218%" x2="19.8324532%" y2="81.4185209%" id="linearGradient-2">
            <stop stop-color="#3973A6" offset="0%"></stop>
            <stop stop-color="#2595FA" offset="100%"></stop>
        </linearGradient>
        <linearGradient x1="4.94107008%" y1="85.2359218%" x2="20.1875179%" y2="81.3274999%" id="linearGradient-3">
            <stop stop-color="#3B71A1" offset="0%"></stop>
            <stop stop-color="#2595FA" offset="100%"></stop>
        </linearGradient>
        <linearGradient x1="4.61757198%" y1="85.2359218%" x2="19.9734809%" y2="81.3274999%" id="linearGradient-4">
            <stop stop-color="#3C6F9C" offset="0%"></stop>
            <stop stop-color="#2595FA" offset="100%"></stop>
        </linearGradient>
        <linearGradient x1="3.6445701%" y1="85.194969%" x2="19.3327707%" y2="80.1243607%" id="linearGradient-5">
            <stop stop-color="#3D6F9B" offset="0%"></stop>
            <stop stop-color="#2595FA" offset="100%"></stop>
        </linearGradient>
    </defs>
    <g id="Components" stroke="none" stroke-width="1" fill="none" fill-rule="evenodd">
        <g id="Artboard-#1" transform="translate(-285.000000, -313.000000)">
            <g id="Logotypes" transform="translate(48.000000, 233.000000)">
                <g id="Colored" transform="translate(0.000000, 76.000000)">
                    <g id="I-Am-Star" transform="translate(234.000000, 0.000000)">
                        <g id="I-Am-Star-Logo" transform="translate(0.000000, 4.000000)">
                            <path d="M2.8718566,23.8467727 L8.13175501,23.2516698 C8.13175501,23.2516698 8.69427307,23.2223428 9.25713697,22.972449 C9.8200009,22.7225551 10.1235464,22.0373227 10.1235464,22.0373227 L12.5183951,17.0454164 C12.5183951,17.0454164 13.6642357,14.6502639 15.0213939,14.6502637 C15.9410887,14.6502639 16.2228194,15.358547 16.2228194,15.358547 L14.4300241,11.5117515 C14.4300241,11.5117515 13.8752567,10.2505163 12.6897766,10.2505163 C11.1605088,10.1410427 10.3772296,11.9077392 10.3772296,11.9077392 L7.13034861,18.666132 C7.13034861,18.666132 7.05994712,19.0599498 6.69693557,19.1544971 C6.33392402,19.2490444 2.36622486,19.7943417 2.36622486,19.7943417 C2.36622486,19.7943417 1.37000806,20.0815492 1.41127989,21.0185262 C1.45255172,21.9555032 2.8718566,23.8467727 2.8718566,23.8467727 Z" id="Path-13" fill="url(#linearGradient-1)" transform="translate(8.816426, 17.046202) rotate(-72.000000) translate(-8.816426, -17.046202) "></path>
                            <path d="M10.4632414,33.6644242 L15.7231398,33.0693212 C15.7231398,33.0693212 16.2856578,33.0399943 16.8485217,32.7901003 C17.4113856,32.5402066 17.7149311,31.8549741 17.7149311,31.8549741 L20.1097799,26.8630678 C20.1097799,26.8630678 21.2556205,24.4679154 22.6127786,24.4679152 C23.5324734,24.4679154 23.8651418,25.1768551 23.8651418,25.1768551 L22.0214089,21.329403 C22.0214089,21.329403 21.4666414,20.0681678 20.2811613,20.0681678 C18.7518936,19.9586942 17.9686144,21.7253906 17.9686144,21.7253906 L14.7217333,28.4837834 C14.7217333,28.4837834 14.6513319,28.8776013 14.2883203,28.9721485 C13.9253088,29.0666959 9.97868732,29.6322154 9.97868732,29.6322154 C9.97868732,29.6322154 9.00671778,30.5596725 9.00671778,31.3424058 C9.00671778,32.1251391 10.4632414,33.6644242 10.4632414,33.6644242 Z" id="Path-13" fill="url(#linearGradient-2)" transform="translate(16.435930, 26.863853) rotate(216.000000) translate(-16.435930, -26.863853) "></path>
                            <path d="M21.9510324,29.2643572 L27.2109307,28.6692542 C27.2109307,28.6692542 27.7734489,28.6399271 28.3363129,28.3900334 C28.8991768,28.1401394 29.2027221,27.4549069 29.2027221,27.4549069 L31.5975709,22.4630008 C31.5975709,22.4630008 32.7434114,20.0678482 34.1005696,20.0678481 C35.0202646,20.0678482 35.3529328,20.776788 35.3529328,20.776788 L33.5091999,16.9293358 C33.5091999,16.9293358 32.9544324,15.6681007 31.7689523,15.6681007 C30.2396847,15.5586271 29.4564055,17.3253235 29.4564055,17.3253235 L26.2095244,24.0837164 C26.2095244,24.0837164 26.1391229,24.4775342 25.7761114,24.5720815 C25.4130998,24.6666288 21.3171503,25.3628658 21.3171503,25.3628658 C21.3171503,25.3628658 20.4945088,26.1596054 20.4945088,26.9423386 C20.4945088,27.7250718 21.9510324,29.2643572 21.9510324,29.2643572 Z" id="Path-13" fill="url(#linearGradient-3)" transform="translate(27.923721, 22.463786) rotate(144.000000) translate(-27.923721, -22.463786) "></path>
                            <path d="M21.6478078,16.7427642 L26.5358361,16.1843019 C26.5358361,16.1843019 27.0983541,16.1549749 27.661218,15.905081 C28.224082,15.6551872 28.5276276,14.9699547 28.5276276,14.9699547 L30.9224763,9.97804842 C30.9224763,9.97804842 32.0683169,7.58289594 33.4254751,7.58289575 C34.3451697,7.58289594 34.6778382,8.29183565 34.6778382,8.29183565 L32.8341053,4.44438351 C32.8341053,4.44438351 32.2793378,3.18314837 31.0938577,3.18314837 C29.5645899,3.07367477 28.7813106,4.84037123 28.7813106,4.84037123 L25.5344297,11.598764 C25.5344297,11.598764 25.4640282,11.9925819 25.1010167,12.0871292 C24.7380051,12.1816765 20.9283089,12.6780309 20.9283089,12.6780309 C20.9283089,12.6780309 19.9123512,13.2242012 19.9123512,14.0069345 C19.9123512,14.7896678 21.6478078,16.7427642 21.6478078,16.7427642 Z" id="Path-13" fill="url(#linearGradient-4)" transform="translate(27.295095, 9.960514) rotate(71.000000) translate(-27.295095, -9.960514) "></path>
                            <path d="M10.035319,13.5447522 L14.7510179,13.0060388 C14.7510179,13.0060388 15.313536,12.9767119 15.8763999,12.726818 C16.4392638,12.4769241 16.7428093,11.7916917 16.7428093,11.7916917 L19.137658,6.79978542 C19.137658,6.79978542 20.2834986,4.40463291 21.6406568,4.40463275 C22.5603516,4.40463291 22.89302,5.11357265 22.89302,5.11357265 L21.0492871,1.2661205 C21.0492871,1.2661205 20.4945196,0.00488533547 19.3090395,0.0048853355 C17.7797718,-0.104588255 16.9964926,1.6621082 16.9964926,1.6621082 L13.7496115,8.42050102 C13.7496115,8.42050102 13.6792101,8.81431883 13.3161985,8.90886613 C12.9531869,9.00341342 9.02939591,9.40460574 9.02939591,9.40460574 C9.02939591,9.40460574 8.32448645,10.0127056 8.32448645,10.7954388 C8.32448645,12.3469801 10.035319,13.5447522 10.035319,13.5447522 Z" id="Path-13" fill="url(#linearGradient-5)"></path>
                        </g>
                    </g>
                </g>
            </g>
        </g>
    </g>
</svg>