<?xml version="1.0" encoding="UTF-8" standalone="no"?>
<svg width="28px" height="34px" viewBox="0 0 28 34" version="1.1" xmlns="http://www.w3.org/2000/svg" xmlns:xlink="http://www.w3.org/1999/xlink">
    <!-- Generator: Sketch 43.1 (39012) - http://www.bohemiancoding.com/sketch -->
    <title>Apple Icon</title>
    <desc>Created with Sketch.</desc>
    <defs></defs>
    <g id="Курс" stroke="none" stroke-width="1" fill="none" fill-rule="evenodd">
        <g id="Курс-(Mobile)" transform="translate(-99.000000, -1610.000000)" fill-rule="nonzero" fill="#4F5362">
            <g id="Tab-#1" transform="translate(68.000000, 1443.000000)">
                <g id="Numbers" transform="translate(0.000000, 53.000000)">
                    <g id="#3" transform="translate(0.000000, 114.000000)">
                        <g id="Apple-Icon" transform="translate(31.000000, 0.000000)">
                            <path d="M1.5325259,12.4985115 C-1.34388845,17.4864787 0.484701195,25.0559934 3.66554582,29.645659 C5.25329084,31.9402689 6.86078088,34 9.06251793,34 C9.10401594,34 9.1456255,33.9992197 9.18823904,33.9975475 C10.2226773,33.9563016 10.9701992,33.6380393 11.6929562,33.3304787 C12.5043984,32.9849049 13.3436175,32.6276262 14.6599522,32.6276262 C15.912255,32.6276262 16.7114263,32.9733115 17.4842709,33.3075148 C18.2459602,33.6368131 19.0305179,33.977482 20.1897849,33.9557443 C22.6698486,33.9095934 24.1925578,31.6869967 25.536,29.7262557 C26.9378964,27.6790098 27.6411315,25.6912918 27.8784064,24.9316984 L27.888,24.9014885 C27.9331793,24.7664918 27.8693705,24.6191213 27.7398566,24.5597049 C27.7362869,24.5580328 27.7231235,24.5525705 27.7194422,24.5510098 C27.2827092,24.3725377 23.4517291,22.6742098 23.4114582,18.0453049 C23.3740876,14.2845705 26.2854183,12.2930623 26.8692908,11.9321049 L26.89651,11.9151607 C26.959761,11.8744721 27.0038247,11.8099279 27.0187729,11.7361311 C27.0337211,11.6624459 27.0181036,11.5857508 26.9757131,11.5237705 C24.9661833,8.58505574 21.8861833,8.14216393 20.6461514,8.08887869 C20.4662151,8.07093115 20.2804781,8.06190164 20.0939602,8.06190164 C18.6375139,8.06190164 17.2423108,8.61158689 16.1214183,9.05325246 C15.3476813,9.3581377 14.6793625,9.62144262 14.2184223,9.62144262 C13.7004781,9.62144262 13.0283665,9.35490492 12.2500558,9.04634098 C11.209259,8.63354754 10.0295777,8.16579672 8.78073307,8.16579672 C8.75094821,8.16579672 8.72160956,8.16613115 8.69271713,8.16668852 C5.78897211,8.20938361 3.04519522,9.86947541 1.5325259,12.4985115 Z" id="XMLID_229_"></path>
                            <path d="M20.6487171,0.00022295082 C18.8902948,0.0717901639 16.7809243,1.15343607 15.5201434,2.62914754 C14.4486693,3.86953443 13.4019602,5.93762623 13.6777211,8.02221639 C13.695012,8.15264262 13.8012112,8.25330492 13.93251,8.26344918 C14.0512032,8.27270164 14.1723506,8.27738361 14.2930518,8.27749508 C16.0124303,8.27749508 17.8672351,7.32694426 19.1339283,5.79638689 C20.4671076,4.18021639 21.1412271,2.10610492 20.9373068,0.248255738 C20.921243,0.102668852 20.7930677,-0.00546229508 20.6487171,0.00022295082 Z" id="XMLID_230_"></path>
                        </g>
                    </g>
                </g>
            </g>
        </g>
    </g>
</svg>