<?xml version="1.0" encoding="UTF-8" standalone="no"?>
<svg width="114px" height="114px" viewBox="0 0 114 114" version="1.1" xmlns="http://www.w3.org/2000/svg" xmlns:xlink="http://www.w3.org/1999/xlink">
    <!-- Generator: Sketch 43.2 (39069) - http://www.bohemiancoding.com/sketch -->
    <title>Icon Copy</title>
    <desc>Created with Sketch.</desc>
    <defs>
        <ellipse id="path-1" cx="53.2947498" cy="53.8333333" rx="7.77215102" ry="7.85069444"></ellipse>
    </defs>
    <g id="Elements" stroke="none" stroke-width="1" fill="none" fill-rule="evenodd">
        <g id="Launching" transform="translate(-103.000000, -327.000000)">
            <g id="Icon-Copy" transform="translate(103.000000, 327.000000)">
                <path d="M40.2646116,0 L74.4891074,0 C85.8391736,0 91.5127934,0 97.6226281,1.9475 C104.293041,4.39565 109.546463,9.69285 111.97438,16.41885 C113.905785,22.57865 113.905785,28.30145 113.905785,39.74515 L113.905785,74.25485 C113.905785,85.6995 113.905785,91.4204 111.97438,97.58115 C109.546463,104.30715 104.293041,109.60435 97.6226281,112.05155 C91.5127934,114 85.8391736,114 74.4891074,114 L40.2646116,114 C28.9145455,114 23.2399835,114 17.1310909,112.05155 C10.4606777,109.60435 5.2072562,104.30715 2.77933884,97.58115 C0.847933884,91.4204 0.847933884,85.6995 0.847933884,74.25485 L0.847933884,39.74515 C0.847933884,28.30145 0.847933884,22.57865 2.77933884,16.41885 C5.2072562,9.69285 10.4606777,4.39565 17.1310909,1.9475 C23.2399835,0 28.9145455,0 40.2646116,0 L40.2646116,0" id="Icon-Shape" fill="#828282"></path>
                <g id="Icon" transform="translate(4.082645, 3.166667)">
                    <g id="Frame" stroke="#FFFFFF">
                        <path d="M1.61238515,53.3010534 C1.61238515,24.6292505 24.8466146,1.39032369 53.5168113,1.39032369 C82.1836277,1.39032369 105.421237,24.6299662 105.421237,53.3010534 L105.421237,85.4233693 C105.421237,96.9417275 96.0862691,106.276343 84.5642414,106.276343 L53.5168113,106.276343 C24.8499948,106.276343 1.61238515,83.0367005 1.61238515,54.3656132 L1.61238515,53.3010534 Z" id="Rectangle-1" stroke-width="2.78064738"></path>
                        <path d="M1.39032369,53.3010534 C1.39032369,24.6292505 24.6245532,1.39032369 53.2947498,1.39032369 C81.9615663,1.39032369 105.199176,24.6299662 105.199176,53.3010534 L105.199176,79.8698408 C105.199176,94.4548934 93.371638,106.276343 78.7757474,106.276343 L53.2947498,106.276343 C24.6279334,106.276343 1.39032369,83.0367005 1.39032369,54.3656132 L1.39032369,53.3010534 Z" id="Rectangle-1-Copy" stroke-width="2.78064738"></path>
                        <path d="M1.39032369,53.3010534 C1.39032369,24.6292505 24.6245532,1.39032369 53.2947498,1.39032369 C81.9615663,1.39032369 105.199176,24.6299662 105.199176,53.3010534 L105.199176,74.3008253 C105.199176,91.9614503 90.887565,106.276343 73.2293822,106.276343 L53.2947498,106.276343 C24.6279334,106.276343 1.39032369,83.0367005 1.39032369,54.3656132 L1.39032369,53.3010534 Z" id="Rectangle-1-Copy-2" stroke-width="2.78064738"></path>
                        <path d="M1.50135442,53.3010534 C1.50135442,24.6292505 24.7355839,1.39032369 53.4057806,1.39032369 C82.072597,1.39032369 105.310207,24.6299662 105.310207,53.3010534 L105.310207,68.7394572 C105.310207,89.4736305 88.5073874,106.276343 67.7668223,106.276343 L53.4057806,106.276343 C24.7389641,106.276343 1.50135442,83.0367005 1.50135442,54.3656132 L1.50135442,53.3010534 Z" id="Rectangle-1-Copy-3" stroke-width="2.78064738"></path>
                        <path d="M1.39032369,53.3010534 C1.39032369,24.6292505 24.6245532,1.39032369 53.2947498,1.39032369 C81.9615663,1.39032369 105.199176,24.6299662 105.199176,53.3010534 L105.199176,63.1751228 C105.199176,86.9775377 85.8997457,106.276343 62.0999583,106.276343 L53.2947498,106.276343 C24.6279334,106.276343 1.39032369,83.0367005 1.39032369,54.3656132 L1.39032369,53.3010534 Z" id="Rectangle-1-Copy-4" stroke-width="2.78064738"></path>
                        <path d="M1.39032369,53.3010534 C1.39032369,24.6292505 24.6245532,1.39032369 53.2947498,1.39032369 C81.9615663,1.39032369 105.199176,24.6299662 105.199176,53.3010534 L105.199176,57.6157173 C105.199176,84.490735 83.4115304,106.276343 56.532818,106.276343 L53.2947498,106.276343 C24.6279334,106.276343 1.39032369,83.0367005 1.39032369,54.3656132 L1.39032369,53.3010534 Z" id="Rectangle-1-Copy-5" stroke-width="2.78064738"></path>
                        <rect id="Rectangle-1-Copy-6" stroke-width="3.33677686" x="1.66838843" y="1.66838843" width="103.252723" height="104.32989" rx="51.6263614"></rect>
                    </g>
                    <g id="Leaves" transform="translate(9.881735, 11.888194)" stroke="#FFFFFF" stroke-width="5.13863636">
                        <path d="M39.3931308,41.9451389 C29.0502012,50.2964852 19.560198,54.7384432 12.7153777,54.7384432 C6.14020626,54.7384433 2.56931818,50.5764991 2.56931818,41.9451389 C2.56931818,33.3137786 6.14020626,29.1518345 12.7153777,29.1518345 C19.560198,29.1518346 29.0502012,33.5937926 39.3931308,41.9451389 Z M47.4328985,41.9451389 C57.7758283,33.5937923 67.2658318,29.1518341 74.1106522,29.1518342 C80.6858236,29.1518342 84.2567117,33.3137785 84.2567117,41.9451389 C84.2567117,50.5764993 80.6858236,54.7384436 74.1106522,54.7384436 C67.2658318,54.7384436 57.7758283,50.2964855 47.4328985,41.9451389 Z" id="Oval-3-Copy"></path>
                        <path d="M41.5791765,38.3001863 C29.0945336,33.5201015 20.4517961,27.5097924 17.0172872,21.5610486 C13.7192889,15.848748 15.5613904,10.6432213 23.0989128,6.29143071 C30.6364353,1.93964009 36.0656044,2.94709677 39.3636026,8.6593974 C42.7981112,14.6081409 43.6818229,25.0981246 41.5791769,38.3001839 L41.5791765,38.3001863 Z M45.58869,45.2448642 C58.0733321,50.024949 66.7160689,56.0352578 70.1505775,61.9840014 C73.4485758,67.696302 71.6064742,72.9018288 64.0689516,77.2536195 C56.5314291,81.6054102 51.1022599,80.5979536 47.8042615,74.885653 C44.3697526,68.9369091 43.486041,58.4469241 45.5886877,45.2448634 L45.58869,45.2448642 Z" id="Oval-3-Copy-2"></path>
                        <path d="M45.2779356,38.3123375 C42.0408407,25.3876258 42.0053032,14.8972562 44.8975546,8.69480306 C47.67421,2.74024627 52.9759491,1.27028186 60.8407789,4.93771221 C68.7056087,8.60514257 70.9874429,13.6113853 68.2107874,19.5659421 C65.3185362,25.7683948 57.2596046,32.4842506 45.2779378,38.3123364 L45.2779356,38.3123375 Z M41.8899302,45.5779421 C45.1270246,58.502653 45.162562,68.9930219 42.2703107,75.1954748 C39.4936552,81.1500315 34.1919159,82.6199959 26.327086,78.9525655 L26.327086,78.9525655 C18.4622561,75.2851351 16.1804218,70.2788923 18.9570772,64.3243355 C21.8493286,58.1218822 29.9082613,51.4060258 41.8899296,45.5779397 L41.8899302,45.5779421 Z" id="Oval-3-Copy-3"></path>
                    </g>
                    <g id="Central">
                        <use fill="#FFFFFF" fill-rule="evenodd" xlink:href="#path-1"></use>
                        <ellipse stroke="#828282" stroke-width="4.44903581" cx="53.2947498" cy="53.8333333" rx="5.54763311" ry="5.62617654"></ellipse>
                    </g>
                </g>
            </g>
        </g>
    </g>
</svg>