<?xml version="1.0" encoding="UTF-8" standalone="no"?>
<svg width="5px" height="9px" viewBox="0 0 5 9" version="1.1" xmlns="http://www.w3.org/2000/svg" xmlns:xlink="http://www.w3.org/1999/xlink">
    <!-- Generator: Sketch 43.1 (39012) - http://www.bohemiancoding.com/sketch -->
    <title>Right</title>
    <desc>Created with Sketch.</desc>
    <defs></defs>
    <g id="Стартап" stroke="none" stroke-width="1" fill="none" fill-rule="evenodd">
        <g id="Наши-стартапы-(Mobile)" transform="translate(-355.000000, -108.000000)" fill="#828282">
            <g id="Projects" transform="translate(0.000000, 80.000000)">
                <g id="Slider" transform="translate(350.000000, 0.000000)">
                    <path d="M9.99519579,32.3959323 C10.017587,32.1995204 9.95340477,31.9962106 9.80341438,31.8462202 L6.15458738,28.1973932 C5.88932976,27.9321356 5.46534066,27.9370585 5.20079578,28.2016034 C4.93440654,28.4679926 4.93436595,28.8931753 5.19658562,29.155395 L8.43874495,32.3975543 L5.19658562,35.6397137 C4.931328,35.9049713 4.93625089,36.3289604 5.20079578,36.5935053 C5.46718502,36.8598945 5.89236771,36.8599351 6.15458738,36.5977154 L9.80341438,32.9488884 C9.95553318,32.7967696 10.0187965,32.5924481 9.99519579,32.3959323 Z" id="Right" transform="translate(7.500000, 32.397325) scale(-1, 1) translate(-7.500000, -32.397325) "></path>
                </g>
            </g>
        </g>
    </g>
</svg>