<?xml version="1.0" encoding="UTF-8" standalone="no"?>
<svg width="85px" height="40px" viewBox="0 0 85 40" version="1.1" xmlns="http://www.w3.org/2000/svg" xmlns:xlink="http://www.w3.org/1999/xlink">
    <!-- Generator: Sketch 43.1 (39012) - http://www.bohemiancoding.com/sketch -->
    <title>Intellection-Logotype</title>
    <desc>Created with Sketch.</desc>
    <defs></defs>
    <g id="О-нас" stroke="none" stroke-width="1" fill="none" fill-rule="evenodd">
        <g id="О-нас-(Desktop)" transform="translate(-109.000000, -20.000000)" fill-rule="nonzero">
            <g id="Header">
                <g transform="translate(109.000000, 20.000000)" id="Intellection-Logotype">
                    <g>
                        <path d="M84.9260044,20.0434557 C84.9260044,31.0370689 76.0451381,39.9495598 65.0905342,39.9495598 L19.9588124,39.9495598 C9.00420839,39.9495598 0.123342176,31.0370689 0.123342176,20.0434557 C0.123342176,9.0498424 9.00420839,0.137351528 19.9588124,0.137351528 L65.0905342,0.137351528 C76.0451381,0.137351528 84.9260044,9.0498424 84.9260044,20.0434557" id="Fill-1" fill="#51A9F2"></path>
                        <path d="M34.3823667,19.7319412 C34.3823667,27.8598078 27.8167712,34.4487835 19.7182106,34.4487835 C11.6191844,34.4487835 5.05358881,27.8598078 5.05358881,19.7319412 C5.05358881,11.6045416 11.6191844,5.01556602 19.7182106,5.01556602 C27.8167712,5.01556602 34.3823667,11.6045416 34.3823667,19.7319412" id="Fill-2" fill="#FFFFFF"></path>
                        <polygon id="Fill-3" fill="#51A9F2" points="18.1731455 27.6725255 21.2628101 27.6725255 21.2628101 12.0790525 18.1731455 12.0790525"></polygon>
                        <path d="M42.9393278,19.8720527 C42.9393278,20.5894235 43.0612576,21.2670959 43.3074442,21.9060043 C43.5531653,22.5444455 43.8938242,23.0992869 44.3294209,23.5695945 C44.7645522,24.0403691 45.2839174,24.4102633 45.8870512,24.6788102 C46.4897196,24.9482914 47.1598684,25.0823314 47.8965665,25.0823314 C48.6337301,25.0823314 49.3034133,24.9482914 49.9065472,24.6788102 C50.5092156,24.4102633 51.0290463,24.0403691 51.4641776,23.5695945 C51.8997741,23.0992869 52.2395023,22.5444455 52.4856888,21.9060043 C52.7314101,21.2670959 52.8542707,20.5894235 52.8542707,19.8720527 C52.8542707,19.154682 52.7314101,18.4770094 52.4856888,17.8381012 C52.2395023,17.1991927 51.8997741,16.6448183 51.4641776,16.1740438 C51.0290463,15.7037363 50.5092156,15.333375 49.9065472,15.064828 C49.3034133,14.795814 48.6337301,14.6613069 47.8965665,14.6613069 C47.1598684,14.6613069 46.4897196,14.795814 45.8870512,15.064828 C45.2839174,15.333375 44.7645522,15.7037363 44.3294209,16.1740438 C43.8938242,16.6448183 43.5531653,17.1991927 43.3074442,17.8381012 C43.0612576,18.4770094 42.9393278,19.154682 42.9393278,19.8720527 Z M39.7570523,19.8720527 C39.7570523,18.7067922 39.9627507,17.6195273 40.3764745,16.6111916 C40.7892674,15.602856 41.3588938,14.7285604 42.0848882,13.9892389 C42.8104172,13.2494503 43.6704414,12.6726581 44.6640298,12.2574611 C45.6576184,11.8431981 46.7354408,11.6358332 47.8965665,11.6358332 C49.0572268,11.6358332 50.1350492,11.8431981 51.1291031,12.2574611 C52.1226917,12.6726581 52.9827158,13.2494503 53.7087102,13.9892389 C54.4337738,14.7285604 55.0034003,15.602856 55.417124,16.6111916 C55.8299169,17.6195273 56.0365462,18.7067922 56.0365462,19.8720527 C56.0365462,21.0597309 55.8299169,22.1526005 55.417124,23.14926 C55.0034003,24.1468537 54.4337738,25.015545 53.7087102,25.7548664 C52.9827158,26.4941879 52.1226917,27.0719142 51.1291031,27.4861772 C50.1350492,27.9004402 49.0572268,28.1078051 47.8965665,28.1078051 C46.7354408,28.1078051 45.6576184,27.9004402 44.6640298,27.4861772 C43.6704414,27.0719142 42.8104172,26.4941879 42.0848882,25.7548664 C41.3588938,25.015545 40.7892674,24.1468537 40.3764745,23.14926 C39.9627507,22.1526005 39.7570523,21.0597309 39.7570523,19.8720527 L39.7570523,19.8720527 Z" id="Fill-4" fill="#FFFFFF"></path>
                        <path d="M62.6910295,13.8626715 C63.099634,13.4736287 63.6874103,13.0794484 64.4520313,12.6791966 C65.2161869,12.2794119 66.1483452,12.0790525 67.2471099,12.0790525 C68.3668165,12.0790525 69.4064779,12.3223794 70.3651627,12.8085662 C71.3233822,13.2952201 72.1261646,13.9490736 72.7721135,14.7705939 C73.2672788,15.3978262 73.6391183,16.12734 73.886701,16.959135 C74.1342836,17.7918643 74.2585404,18.8674534 74.2585404,20.1859023 L74.2585404,27.6440362 L71.1888872,27.6440362 L71.1888872,20.0238402 C71.1888872,19.0509995 71.1083762,18.3051393 70.9468891,17.7862598 C70.7849364,17.2673803 70.5638804,16.8353699 70.2841864,16.4892946 C69.9179316,16.0353335 69.4604619,15.6733788 68.910847,15.4029637 C68.3616974,15.1325485 67.7743864,14.9975745 67.1498452,14.9975745 C66.1371761,14.9975745 65.2706365,15.2198847 64.5488307,15.6621699 C63.8270247,16.1058562 63.2401791,16.6083894 62.7878288,17.1702364 L62.7878288,27.6440362 L59.7181756,27.6440362 L59.7181756,12.0790525 L62.6910295,12.0790525 L62.6910295,13.8626715" id="Fill-5" fill="#FFFFFF"></path>
                    </g>
                </g>
            </g>
        </g>
    </g>
</svg>