<?xml version="1.0" encoding="UTF-8" standalone="no"?>
<svg width="38px" height="38px" viewBox="0 0 38 38" version="1.1" xmlns="http://www.w3.org/2000/svg" xmlns:xlink="http://www.w3.org/1999/xlink">
    <!-- Generator: Sketch 43.2 (39069) - http://www.bohemiancoding.com/sketch -->
    <title>Wallswap</title>
    <desc>Created with Sketch.</desc>
    <defs></defs>
    <g id="Components" stroke="none" stroke-width="1" fill="none" fill-rule="evenodd">
        <g id="Artboard-#1" transform="translate(-126.000000, -234.000000)">
            <g id="Logotypes" transform="translate(48.000000, 233.000000)">
                <g id="B&amp;W">
                    <g id="Wallswap" transform="translate(78.000000, 1.000000)">
                        <g id="Wallswap-Logo">
                            <path d="M0,18.6370283 C0,8.34414289 8.45716356,0 18.8896932,0 C29.3222227,0 37.7793865,8.34414289 37.7793865,18.6370283 C37.7793865,28.9300144 29.3222227,37.2740566 18.8896932,37.2740566 C8.45716356,37.2740566 0,28.9300144 0,18.6370283 Z" id="Fill-1" fill="#828282"></path>
                            <g id="Group" transform="translate(10.000000, 6.000000)" fill="#FFFFFF">
                                <path d="M5.04445613,4.42812914 C6.15401736,4.44051651 7.04187052,3.58145843 7.05228221,2.48542923 C7.06248977,1.39826254 6.17974041,0.489554329 5.09865823,0.474447791 C3.97664378,0.458837723 3.04408155,1.36472603 3.04857287,2.46569004 C3.0530642,3.55849649 3.9247894,4.41554037 5.04445613,4.42812914" id="Fill-4"></path>
                                <path d="M17.4380613,12.8881593 C17.4416338,12.6680067 17.3467035,12.390953 17.1493915,12.0537752 C15.6370402,9.46874557 14.123668,6.88421949 12.6066213,4.30200976 C11.7723578,2.88199581 11.3561957,2.89196614 10.517441,4.33202139 C9.29978169,6.42256391 8.07763112,8.51048794 6.8010743,10.6960002 C6.17545324,9.63622664 5.63424867,8.68048677 5.05364292,7.74881662 C4.60757278,7.03306918 4.04268667,7.02773153 3.61866484,7.7336094 C2.73448642,9.20589192 1.86347574,10.686332 1.01451338,12.1786559 C0.853948527,12.4609466 0.781372821,12.701644 0.790049228,12.8988345 C0.786476598,13.1189871 0.881406863,13.3961415 1.0787189,13.7332186 C2.59107027,16.3182482 4.10444238,18.9028751 5.62148922,21.4850848 C6.45575269,22.9049981 6.87191472,22.8951285 7.71066952,21.4549723 C8.92832876,19.3644299 10.1504793,17.2766066 11.4270362,15.0910944 C12.0527593,16.1507672 12.5938618,17.106507 13.1744675,18.0382778 C13.6205377,18.7540254 14.1854237,18.759363 14.6094455,18.0533845 C15.493624,16.5812026 16.3647368,15.1006618 17.2135971,13.6084387 C17.3741619,13.326148 17.4468398,13.0853498 17.4380613,12.8881593" id="Fill-6"></path>
                                <path d="M13.1836645,21.3589452 C12.0741033,21.3465578 11.1862502,22.205616 11.1758385,23.3016451 C11.1656309,24.3888119 12.0483803,25.29752 13.1294624,25.3125259 C14.2514769,25.3281361 15.1840391,24.4223483 15.1795477,23.3213844 C15.1750565,22.228578 14.3033313,21.371534 13.1836645,21.3589452" id="Fill-8"></path>
                            </g>
                        </g>
                    </g>
                </g>
            </g>
        </g>
    </g>
</svg>