<?xml version="1.0" encoding="UTF-8" standalone="no"?>
<svg width="38px" height="38px" viewBox="0 0 38 38" version="1.1" xmlns="http://www.w3.org/2000/svg" xmlns:xlink="http://www.w3.org/1999/xlink">
    <!-- Generator: Sketch 43.2 (39069) - http://www.bohemiancoding.com/sketch -->
    <title>Kazakh Adventure</title>
    <desc>Created with Sketch.</desc>
    <defs></defs>
    <g id="Components" stroke="none" stroke-width="1" fill="none" fill-rule="evenodd">
        <g id="Artboard-#1" transform="translate(-360.000000, -234.000000)" fill="#828282">
            <g id="Logotypes" transform="translate(48.000000, 233.000000)">
                <g id="B&amp;W">
                    <g id="Kazakh-Adventure" transform="translate(312.000000, 1.000000)">
                        <g id="Kazakh-Adventure-Logo">
                            <path d="M8.18286772,22.74744 C8.2106881,22.8230749 8.27429504,22.880289 8.35260879,22.9001737 C8.43153532,22.9200583 8.51462879,22.9001737 8.57517181,22.8466193 L13.4474146,18.5716616 L16.4370635,21.2551146 L16.7652704,20.8927991 L13.6132339,18.0635658 C13.5209486,17.9806114 13.3806212,17.9796355 13.2871104,18.061736 L8.52504611,22.2401982 C8.16166541,21.1393444 7.97770775,19.989694 7.97770775,18.817719 C7.97770775,12.7727826 12.9183372,7.85492829 18.9912683,7.85492829 C25.0641993,7.85492829 30.0048288,12.7727826 30.0048288,18.817719 C30.0048288,24.8626553 25.0641993,29.7805097 18.9912683,29.7805097 C16.6816867,29.7805097 14.4839994,29.0819848 12.6158672,27.7575201 L23.1749873,17.839589 L27.8035873,21.9221656 L28.1287303,21.5569223 L23.3323502,17.3263696 C23.2372462,17.2425612 23.0938548,17.2448791 23.0015696,17.3314932 L12.0652198,27.6036885 C12.0127655,27.6532171 11.9848226,27.7231184 11.9887444,27.7948496 C11.9927888,27.8667028 12.0284528,27.9329443 12.086177,27.9762514 C14.0893667,29.4757742 16.4770169,30.2684768 18.9912683,30.2684768 C25.3345595,30.2684768 30.4950557,25.1317692 30.4950557,18.817719 C30.4950557,12.5036688 25.3345595,7.36696119 18.9912683,7.36696119 C12.647977,7.36696119 7.48748084,12.5036688 7.48748084,18.817719 C7.48748084,20.1681679 7.72144163,21.4903148 8.18286772,22.74744" id="Fill-1"></path>
                            <path d="M18.894571,36.597532 C9.08427247,36.597532 1.10301057,28.6530617 1.10301057,18.8879863 C1.10301057,9.12291078 9.08427247,1.17856252 18.894571,1.17856252 C28.7048695,1.17856252 36.6861314,9.12291078 36.6861314,18.8879863 C36.6861314,28.6530617 28.7048695,36.597532 18.894571,36.597532 Z M18.894571,0.0806365621 C8.47602342,0.0806365621 0,8.5175876 0,18.8879863 C0,29.2585069 8.47602342,37.6954579 18.894571,37.6954579 C29.3131186,37.6954579 37.789142,29.2585069 37.789142,18.8879863 C37.789142,8.5175876 29.3131186,0.0806365621 18.894571,0.0806365621 L18.894571,0.0806365621 Z" id="Fill-2"></path>
                            <polyline id="Fill-3" points="9.19861789 10.1560591 8.52051151 9.45875413 8.52749724 8.83647409 10.2968487 9.09802446 10.7693049 8.64287315 8.5358311 8.31947296 8.55776876 6.37553405 8.0331034 6.88106796 8.00944995 8.93345755 6.99063585 7.8859142 6.61892129 8.24383806 8.82714845 10.514227 9.19861789 10.1560591"></polyline>
                            <path d="M13.1105061,6.13935798 L11.9055284,6.73821559 L11.8577313,5.14756486 L13.1105061,6.13935798 Z M11.939354,7.88676814 L11.9214608,7.30547734 L13.5563675,6.49276815 L14.0124011,6.85642562 L14.5196634,6.60439062 L11.7832168,4.43293706 L11.3326982,4.65679196 L11.4323368,8.13892514 L11.939354,7.88676814 L11.939354,7.88676814 Z" id="Fill-4"></path>
                            <polyline id="Fill-5" points="16.8905234 3.45346511 15.4789149 5.97405913 15.5393354 6.34832989 18.0731958 5.94295122 17.9912053 5.43509947 16.2182997 5.71860835 17.6300307 3.19801434 17.5696102 2.82374358 15.0357498 3.22912224 15.1177403 3.73697399 16.8905234 3.45346511"></polyline>
                            <path d="M21.1889555,3.65926523 L21.6448666,5.18684621 L20.3125524,4.99043946 L21.1889555,3.65926523 Z M19.9990522,5.4643775 L21.8068866,5.73080753 L21.9714802,6.28904189 L22.5324224,6.37175231 L21.5391001,3.03088561 L21.0411521,2.95756855 L19.1183596,5.86865824 L19.6791792,5.95124667 L19.9990522,5.4643775 L19.9990522,5.4643775 Z" id="Fill-6"></path>
                            <polyline id="Fill-7" points="24.517964 6.14972728 25.1075844 5.94307322 25.466308 7.68694562 26.0578893 7.97289433 25.5984241 5.77399262 27.4402066 5.12914411 26.7836702 4.8118435 24.8386949 5.49206963 25.4785636 4.18090205 25.0135834 3.95594922 23.6272217 6.79774758 24.0920793 7.02257842 24.517964 6.14972728"></polyline>
                            <polyline id="Fill-8" points="27.3622606 8.99286755 28.2702834 8.02766864 29.4451122 9.12303277 28.5368443 10.0881097 28.9141964 10.439934 31.0838182 8.13416746 30.706466 7.78246517 29.7984432 8.74754209 28.6238595 7.65229995 29.5318823 6.68722303 29.1547753 6.33539876 26.9850309 8.64104327 27.3622606 8.99286755"></polyline>
                            <path d="M5.23170167,25.9896153 L4.6895107,24.7623781 L6.28814068,24.7926321 L5.23170167,25.9896153 Z M6.80643309,24.2945396 L3.30707079,24.2232965 L3.53514886,24.7398096 L4.11949935,24.7504229 L4.85508484,26.4158546 L4.46792813,26.8516092 L4.69612876,27.3680004 L7.00901936,24.7532287 L6.80643309,24.2945396 L6.80643309,24.2945396 Z" id="Fill-9"></path>
                            <path d="M8.59036885,29.6050855 C8.12379538,30.01327 7.49936884,29.982894 7.09223538,29.5218871 L6.69417113,29.0712495 L8.30125752,27.6648064 L8.69944433,28.115444 C9.10645523,28.5764509 9.05681976,29.1967791 8.59036885,29.6050855 Z M8.34819675,26.9388333 L5.96471347,29.0245267 L6.70422078,29.8617562 C7.29690512,30.532833 8.24377841,30.5933409 8.93156678,29.9913115 C9.61935515,29.3894041 9.68026584,28.4468956 9.08745894,27.7758189 L8.34819675,26.9388333 L8.34819675,26.9388333 Z" id="Fill-10"></path>
                            <polyline id="Fill-11" points="10.8429615 32.3667353 11.1196946 29.7074366 10.6315512 29.4119725 10.2680479 32.890446 10.6362083 33.1133249 13.5722999 31.1924425 13.0802346 30.8945386 10.8429615 32.3667353"></polyline>
                            <polyline id="Fill-12" points="13.6541678 34.520988 15.5821077 35.0486024 15.7191261 34.5525839 14.2895019 34.1612343 14.5047115 33.3823168 15.9342132 33.7736664 16.0713542 33.2774039 14.6418525 32.8862982 14.8569395 32.1073808 16.2864412 32.4984864 16.4234597 32.0023459 14.4957649 31.4748534 13.6541678 34.520988"></polyline>
                            <polyline id="Fill-13" points="19.9267438 32.1835036 19.945495 34.4856104 18.0494198 32.1986306 17.5731643 32.2025344 17.5987787 35.3623653 18.1159681 35.3582175 18.0972169 33.0605025 19.9932921 35.3429686 20.4695475 35.3391868 20.4436881 32.1793559 19.9267438 32.1835036"></polyline>
                            <polyline id="Fill-14" points="24.1903698 31.170118 21.4072291 32.0352836 21.5612829 32.5264225 22.7084139 32.1698406 23.5003755 34.6945823 23.9937888 34.5412386 23.2018273 32.0163749 24.3444236 31.6612569 24.1903698 31.170118"></polyline>
                            <path d="M27.4656984,29.1158985 L27.0384657,29.405629 L28.0037225,30.8157319 C28.3178354,31.2745429 28.1976072,31.8202121 27.7516233,32.1228737 C27.3056393,32.4252913 26.7513153,32.3370913 26.4370798,31.8782802 L25.471823,30.4681773 L25.0447128,30.7579078 L26.0099696,32.1680107 C26.4875732,32.8655596 27.3569906,33.0132917 28.0428181,32.5481371 C28.7323222,32.0804206 28.9084363,31.2235504 28.4309552,30.5258794 L27.4656984,29.1158985" id="Fill-15"></path>
                            <path d="M30.5977582,28.0088232 L30.2691836,28.5042318 L29.9915926,28.8498345 L29.1029338,28.1421602 L29.592793,27.5325673 C29.8024876,27.2716269 30.1366998,27.2313696 30.3951719,27.4372917 C30.5829289,27.5867316 30.6521734,27.803633 30.5977582,28.0088232 Z M30.7179864,27.0354508 C30.2329068,26.6493468 29.5858073,26.7177842 29.1892137,27.211119 L28.3766626,28.2224308 L30.8550048,30.1957697 L31.1776967,29.7939288 L30.3952945,29.1709168 L30.8851537,28.5613239 L30.9050079,28.5366816 L32.1349873,28.6028011 L32.5342771,28.1058066 L31.1267131,28.0370033 C31.1854177,27.6674902 31.0472963,27.2976111 30.7179864,27.0354508 L30.7179864,27.0354508 Z" id="Fill-16"></path>
                            <polyline id="Fill-17" points="33.1350502 25.8714053 32.3921113 25.5459313 32.9895754 24.1947504 32.5165064 23.9874864 31.9190423 25.3384233 31.1759809 25.0129492 31.7734449 23.6618903 31.3002534 23.4546263 30.4945655 25.2765734 33.3998953 26.5496796 34.2057058 24.7278544 33.7325142 24.5203464 33.1350502 25.8714053"></polyline>
                            <path d="M18.7720143,13.1909704 C19.3974213,13.1909704 19.9062768,13.6973583 19.9062768,14.3200043 C19.9062768,14.9425283 19.3974213,15.4490382 18.7720143,15.4490382 C18.1464847,15.4490382 17.6377517,14.9425283 17.6377517,14.3200043 C17.6377517,13.6973583 18.1464847,13.1909704 18.7720143,13.1909704 Z M17.1475248,14.3200043 C17.1475248,15.2115202 17.8762471,15.9370053 18.7720143,15.9370053 C19.6677814,15.9370053 20.3965037,15.2115202 20.3965037,14.3200043 C20.3965037,13.4283664 19.6677814,12.7030033 18.7720143,12.7030033 C17.8762471,12.7030033 17.1475248,13.4283664 17.1475248,14.3200043 L17.1475248,14.3200043 Z" id="Fill-18"></path>
                            <polygon id="Fill-19" points="18.6494575 12.0812113 19.1396845 12.0812113 19.1396845 11.3629237 18.6494575 11.3629237"></polygon>
                            <polyline id="Fill-20" points="16.5852345 12.3149475 17.0951931 12.8227993 17.4417835 12.4778065 16.931825 11.9699548 16.5852345 12.3149475"></polyline>
                            <polyline id="Fill-21" points="15.8016068 13.9529311 15.8013617 14.4408981 16.5227306 14.4411421 16.5229757 13.953175 15.8016068 13.9529311"></polyline>
                            <polyline id="Fill-22" points="17.2673853 15.9884858 16.9209174 15.6432491 16.4104686 16.1507348 16.7569365 16.4960936 17.2673853 15.9884858"></polyline>
                            <polyline id="Fill-23" points="18.4021381 17.2765969 18.892365 17.2770849 18.8929778 16.5589193 18.4027508 16.5584313 18.4021381 17.2765969"></polyline>
                            <polyline id="Fill-24" points="20.1008969 16.163056 20.6106103 16.6712737 20.9574459 16.326525 20.4477324 15.8183073 20.1008969 16.163056"></polyline>
                            <polyline id="Fill-25" points="21.7422992 14.6891514 21.7427894 14.2011843 21.0211754 14.2003304 21.0208077 14.6882975 21.7422992 14.6891514"></polyline>
                            <polyline id="Fill-26" points="20.2778688 12.6524988 20.623969 12.9979795 21.1347855 12.4907377 20.7886853 12.145379 20.2778688 12.6524988"></polyline>
                            <path d="M4.38924671,19.8070723 C4.44807394,19.8070723 4.50714629,19.7860897 4.55408551,19.7435146 L5.90257721,18.520913 C5.950742,18.4773619 5.97929772,18.41661 5.98236164,18.3518324 C5.98542556,18.2872988 5.96250745,18.224229 5.9187547,18.1762862 L5.32227109,17.5243622 L4.95987085,17.853008 L5.39127053,18.3245062 L4.40517909,19.218462 L3.46247272,18.1882414 L5.77291219,16.0933987 L5.77229941,16.0926668 L6.47736827,15.4534299 C6.57737456,15.362668 6.58472797,15.2083484 6.4934232,15.1086811 L5.22067157,13.7177309 C5.17679626,13.6699101 5.11576301,13.6413641 5.05080794,13.6383143 C4.98928446,13.6361184 4.92249104,13.6580769 4.87432625,13.701628 L3.52595711,14.9243515 C3.47779231,14.9679026 3.4492366,15.0286545 3.44605012,15.0933102 C3.44310876,15.1579658 3.46590431,15.2211575 3.50977962,15.2689783 L4.10626322,15.9207803 L4.46866347,15.5921345 L4.03714123,15.1207583 L5.02323267,14.2266806 L5.9660616,15.2569011 L3.65562213,17.3517438 L3.65623491,17.3524758 L2.95116605,17.9917127 C2.85115976,18.0824746 2.84380635,18.2367942 2.93498856,18.3363395 L4.20786275,19.7274116 C4.25627266,19.7802341 4.32257585,19.8070723 4.38924671,19.8070723" id="Fill-27"></path>
                            <path d="M34.9822252,17.9917127 L34.2770338,17.3524758 L34.2776466,17.3517438 L31.9672071,15.2569011 L32.9099135,14.2266806 L33.8960049,15.1207583 L33.4647278,15.5921345 L33.827128,15.9207803 L34.4234891,15.2689783 C34.5146713,15.169433 34.5074404,15.0151134 34.4073116,14.9243515 L33.0588199,13.701628 C33.0109002,13.6580769 32.9466805,13.6359964 32.8824608,13.6383143 C32.8173831,13.6413641 32.7563499,13.6699101 32.7125971,13.7177309 L31.4397229,15.1086811 C31.3485407,15.2083484 31.3558941,15.362668 31.4559004,15.4534299 L32.1609693,16.0926668 L32.1603565,16.0933987 L34.4709185,18.1882414 L33.5279671,19.218462 L32.5418756,18.3245062 L32.9733979,17.853008 L32.6109976,17.5243622 L32.014514,18.1762862 C31.9706387,18.224229 31.9478431,18.2872988 31.9507845,18.3518324 C31.953971,18.41661 31.9825267,18.4773619 32.0306915,18.520913 L33.3790606,19.7435146 C33.4261224,19.7860897 33.4851948,19.8070723 33.544022,19.8070723 C33.6106929,19.8070723 33.676996,19.7802341 33.725406,19.7274116 L34.9982801,18.3363395 C35.0421555,18.2886407 35.064951,18.2253269 35.0620096,18.1607933 C35.0589457,18.0961377 35.0302675,18.0353857 34.9822252,17.9917127" id="Fill-28"></path>
                            <polyline id="Fill-29" points="6.69159743 11.997037 6.58852722 11.344625 5.93309384 11.447098 6.03616404 12.099632 6.69159743 11.997037"></polyline>
                            <polyline id="Fill-30" points="3.9683869 21.8062734 4.52663281 22.1633434 4.8852338 21.6076708 4.32711045 21.2507229 3.9683869 21.8062734"></polyline>
                            <polyline id="Fill-31" points="33.8877936 21.8959374 33.4924256 21.3656392 32.9596715 21.7593066 33.3550395 22.2896049 33.8877936 21.8959374"></polyline>
                            <polyline id="Fill-32" points="32.3145329 11.4912591 31.6753995 11.314005 31.4973246 11.9501921 32.136458 12.1274462 32.3145329 11.4912591"></polyline>
                        </g>
                    </g>
                </g>
            </g>
        </g>
    </g>
</svg>