<?xml version="1.0" encoding="UTF-8" standalone="no"?>
<svg width="38px" height="27px" viewBox="0 0 38 27" version="1.1" xmlns="http://www.w3.org/2000/svg" xmlns:xlink="http://www.w3.org/1999/xlink">
    <!-- Generator: Sketch 43.2 (39069) - http://www.bohemiancoding.com/sketch -->
    <title>Fenix</title>
    <desc>Created with Sketch.</desc>
    <defs></defs>
    <g id="Components" stroke="none" stroke-width="1" fill="none" fill-rule="evenodd">
        <g id="Artboard-#1" transform="translate(-204.000000, -240.000000)">
            <g id="Logotypes" transform="translate(48.000000, 233.000000)">
                <g id="B&amp;W">
                    <g id="Fenix" transform="translate(156.000000, 1.000000)">
                        <g id="Fenix-Logo" transform="translate(0.000000, 6.000000)">
                            <path d="M2.84933131,21.5288454 C2.76893032,21.643452 2.69522942,21.7598039 2.62211113,21.8764467 C2.57550186,21.9523663 2.52801867,22.0314857 2.47878763,22.1158408 C2.4114955,22.2319018 2.34216422,22.3555258 2.27108509,22.4846764 L2.35469046,22.308985 L2.35469046,22.308985 L2.27108509,22.4846764 C1.92268082,23.119667 1.54048483,23.8922437 1.20198503,24.6014087 L0.524985421,26.0546442 C0.356026828,26.4258068 0.252321209,26.6605468 0.252321209,26.6605468 C3.48438256,26.4071905 6.9579382,24.5484686 8.36670329,21.8552125 C8.8680442,20.8970544 9.64758422,17.7247194 9.64758422,17.7247194 C7.18981931,17.7296643 4.35597586,19.3777893 2.84933131,21.5288454" id="Fill-1" fill="#828282"></path>
                            <path d="M4.44060081,17.9285099 L4.4219571,17.9706874 C4.42166579,17.9706874 4.42108317,17.9703966 4.42079186,17.9703966 L4.30922095,18.2045548 L2.07925882,22.8903375 C2.13285948,22.8100547 2.18092529,22.736753 2.20335599,22.6971933 C2.25229572,22.6128382 2.30007022,22.5337189 2.34667949,22.4577992 C2.42678917,22.3271942 2.50340315,22.209097 2.57360836,22.1101979 C4.08025291,19.9591418 6.91438766,18.3110168 9.37186126,18.305781 C9.78784896,18.3531944 10.2102455,18.3796644 10.6390507,18.3796644 C14.8673852,18.3796644 18.5451476,16.0258651 20.4302012,12.5588688 L13.1046809,12.5588688 C9.80678398,12.5588688 5.85344422,14.9528095 4.44060081,17.9285099" id="Fill-4"></path>
                            <path d="M4.71632376,17.3470993 L4.69738875,17.3892769 C4.69709744,17.3892769 4.69680613,17.388986 4.69651482,17.388986 L4.58494387,17.6231443 L2.35469046,22.3089269 C2.40858242,22.2286441 2.45635692,22.1556333 2.47878763,22.1160737 C2.52801867,22.0314276 2.57550186,21.9523083 2.62211113,21.8763887 C2.70222081,21.7460745 2.77883479,21.6276865 2.84933131,21.5287873 C4.35597586,19.3777312 7.18981931,17.7296063 9.64758422,17.7246613 C10.0635719,17.7717838 10.4859684,17.7982539 10.9147737,17.7982539 C15.1431081,17.7982539 18.8208706,15.4444546 20.7056328,11.9774583 L13.3801126,11.9774583 C10.0822156,11.9774583 6.12916717,14.371399 4.71632376,17.3470993" id="Fill-6" fill="#828282"></path>
                            <path d="M7.40611542,11.7449871 L4.41642224,18.0259546 C4.41700486,18.0259546 4.41729617,18.0262455 4.41758748,18.0262455 L4.43652249,17.9840679 C5.84907459,15.0083676 9.80241436,12.6144268 13.1003113,12.6144268 L20.4258315,12.6144268 C20.4261229,12.6141359 20.4264142,12.6138451 20.4264142,12.6135542 C20.4371926,12.6135542 20.4476796,12.6144268 20.458458,12.6144268 L20.4590406,12.6144268 L20.4596233,12.6144268 C24.3474187,12.6144268 27.6910511,10.0465399 29.188665,6.36080202 C29.1965304,6.36080202 29.204687,6.36138378 29.2125523,6.36138378 C29.4196722,6.36138378 29.6244617,6.35178476 29.8280859,6.33724076 L15.9761031,6.33724076 C12.6782061,6.33724076 8.82158059,8.77074117 7.40611542,11.7449871" id="Fill-8"></path>
                            <path d="M7.68585841,11.1081349 L4.69645657,17.3888115 C4.69674788,17.3891024 4.69703916,17.3893933 4.69762178,17.3893933 L4.71626548,17.3472157 C6.12910889,14.3715153 10.0821573,11.9775746 13.3803456,11.9775746 L20.7058658,11.9775746 C20.7058658,11.9775746 20.7061572,11.9769928 20.7061572,11.9767019 C20.7169355,11.9767019 20.7274226,11.9775746 20.7384923,11.9775746 L20.7390749,11.9775746 L20.7393662,11.9775746 C24.6271617,11.9772837 27.970794,9.40939685 29.468408,5.72394978 C29.4765647,5.72394978 29.48443,5.72453154 29.4925866,5.72453154 C29.6994152,5.72453154 29.9042047,5.71464162 30.1078289,5.70038852 L16.2558461,5.70038852 C12.9579491,5.70038852 9.10132358,8.13388893 7.68585841,11.1081349" id="Fill-10" fill="#828282"></path>
                            <path d="M13.2634437,0.64530484 C10.4365917,0.64530484 7.47602934,2.86239067 6.68454572,5.57222687 L0.524839767,26.6604306 C0.695837514,26.284323 0.935583932,25.7648117 1.20183937,25.2071951 C1.54033917,24.4980302 1.92253516,23.7254534 2.27093943,23.0904628 L2.35483611,22.9147714 L4.58479823,18.2289887 L4.69636918,17.9948305 L7.68577102,11.713863 C9.1015275,8.73961702 12.9578617,6.30640751 16.2557587,6.30640751 L30.1077415,6.30640751 C33.5306095,6.06555902 36.4632065,3.83422009 37.9724726,0.64530484 L13.2634437,0.64530484 Z" id="Fill-12"></path>
                            <path d="M13.2633563,0.0395767128 C10.4365043,0.0395767128 7.47623323,2.25668733 6.68474961,4.96655384 L0.524752375,26.0547025 C0.695750121,25.6788816 0.935787849,25.1593644 1.20175198,24.6017416 C1.54025178,23.8922779 1.92244777,23.1196925 2.27114335,22.4849856 L2.35474872,22.3092923 L4.58500215,17.6234572 L4.69628176,17.3890055 L7.68597494,11.1082586 C9.10144011,8.13397941 12.9580657,5.70045179 16.2559626,5.70045179 L30.1079454,5.70045179 C33.5308136,5.45960061 36.4631189,3.22823673 37.9723853,0.0395767128 L13.2633563,0.0395767128 Z" id="Fill-14" fill="#828282"></path>
                        </g>
                    </g>
                </g>
            </g>
        </g>
    </g>
</svg>