<?xml version="1.0" encoding="UTF-8" standalone="no"?>
<svg width="38px" height="36px" viewBox="0 0 38 36" version="1.1" xmlns="http://www.w3.org/2000/svg" xmlns:xlink="http://www.w3.org/1999/xlink">
    <!-- Generator: Sketch 43.2 (39069) - http://www.bohemiancoding.com/sketch -->
    <title>Qazaq App</title>
    <desc>Created with Sketch.</desc>
    <defs></defs>
    <g id="Components" stroke="none" stroke-width="1" fill="none" fill-rule="evenodd">
        <g id="Artboard-#1" transform="translate(-48.000000, -235.000000)" fill="#828282">
            <g id="Logotypes" transform="translate(48.000000, 233.000000)">
                <g id="B&amp;W">
                    <g id="Qazaq-App" transform="translate(0.000000, 1.000000)">
                        <g id="QazaqApp-Logo" transform="translate(0.000000, 1.000000)">
                            <path d="M37.6738627,33.5937209 C37.7143836,33.6178184 37.7509282,33.639092 37.7838751,33.6577301 C37.1024039,34.1221728 30.631552,36.0607079 25.2206822,31.3872888 L32.1268501,26.7059624 C32.1268501,26.7059624 32.8927715,30.6562667 37.6687502,33.594474 C37.6710224,33.5940974 37.6717798,33.5940974 37.6738627,33.5937209" id="Fill-4"></path>
                            <path d="M18.0118002,7.4657795 C12.1160047,7.4657795 7.31957609,12.2350241 7.31957609,18.0965656 C7.31957609,23.9582954 12.1160047,28.7275399 18.0118002,28.7275399 C23.9075957,28.7275399 28.7040243,23.9582954 28.7040243,18.0965656 C28.7040243,12.2350241 23.9075957,7.4657795 18.0118002,7.4657795 M18.0118002,36.005001 C8.08000629,36.005001 5.68050443e-05,27.9711028 5.68050443e-05,18.0965656 C5.68050443e-05,8.22221673 8.08000629,0.188318483 18.0118002,0.188318483 C27.9435941,0.188318483 36.0235436,8.22221673 36.0235436,18.0965656 C36.0235436,27.9711028 27.9435941,36.005001 18.0118002,36.005001" id="Fill-1"></path>
                        </g>
                    </g>
                </g>
            </g>
        </g>
    </g>
</svg>