<?xml version="1.0" encoding="UTF-8" standalone="no"?>
<svg width="38px" height="38px" viewBox="0 0 38 38" version="1.1" xmlns="http://www.w3.org/2000/svg" xmlns:xlink="http://www.w3.org/1999/xlink">
    <!-- Generator: Sketch 43.2 (39069) - http://www.bohemiancoding.com/sketch -->
    <title>Wallswap</title>
    <desc>Created with Sketch.</desc>
    <defs>
        <linearGradient x1="50%" y1="0%" x2="50%" y2="100%" id="linearGradient-1">
            <stop stop-color="#57D5FA" offset="0%"></stop>
            <stop stop-color="#1F8EFA" offset="100%"></stop>
        </linearGradient>
    </defs>
    <g id="Components" stroke="none" stroke-width="1" fill="none" fill-rule="evenodd">
        <g id="Artboard-#1" transform="translate(-126.000000, -311.000000)">
            <g id="Logotypes" transform="translate(48.000000, 233.000000)">
                <g id="Colored" transform="translate(0.000000, 76.000000)">
                    <g id="Wallswap" transform="translate(78.000000, 2.000000)">
                        <g id="Wallswap-Logo">
                            <path d="M-1.02317137e-05,19.036261 C-1.02317137e-05,8.57939326 8.47716931,0.102314618 18.9343901,0.102314618 C29.3916108,0.102314618 37.8687905,8.57939326 37.8687905,19.036261 C37.8687905,29.4932311 29.3916108,37.9702075 18.9343901,37.9702075 C8.47716931,37.9702075 -1.02317137e-05,29.4932311 -1.02317137e-05,19.036261 Z" id="Fill-1" fill="url(#linearGradient-1)"></path>
                            <path d="M15.0800626,10.5942662 C16.1922499,10.6068509 17.0822043,9.73410662 17.0926407,8.6206159 C17.1028724,7.51612888 16.2180338,6.59294347 15.134393,6.57759626 C14.009723,6.5617375 13.0749536,7.48205808 13.0794556,8.60056223 C13.0839575,9.71077886 13.9577459,10.5814768 15.0800626,10.5942662" id="Fill-4" fill="#FFFFFF"></path>
                            <path d="M27.5030003,19.1890783 C27.5065813,18.9654184 27.4114263,18.6839507 27.2136473,18.3414011 C25.6977166,15.7151878 24.1807626,13.089486 22.6601254,10.4661375 C21.8238875,9.02350042 21.4067405,9.0336296 20.5660006,10.4966273 C19.3454594,12.6204755 18.1204163,14.7416636 16.8408382,16.9619946 C16.2137365,15.8853371 15.671251,14.9143708 15.0892711,13.9678576 C14.6421452,13.2407071 14.0759222,13.2352845 13.6508968,13.9524081 C12.7646257,15.4481465 11.8915536,16.9521723 11.040582,18.4682714 C10.8796371,18.7550594 10.8068896,18.9995915 10.8155866,19.1999237 C10.8120055,19.4235836 10.9071604,19.7051536 11.1049394,20.0476008 C12.6208702,22.6738142 14.137824,25.2996183 15.6584614,27.9229669 C16.4946993,29.3655016 16.9118463,29.3554748 17.7525862,27.8923746 C18.9731274,25.7685264 20.1981705,23.6474407 21.4777486,21.4271098 C22.1049526,22.5036649 22.6473358,23.4746312 23.2293157,24.4212466 C23.6764416,25.1483973 24.2426645,25.1538199 24.6676899,24.4365939 C25.553961,22.9409578 26.4271354,21.4368296 27.2780048,19.9208329 C27.4389497,19.6340449 27.5117995,19.3894105 27.5030003,19.1890783" id="Fill-6" fill="#FFFFFF"></path>
                            <path d="M23.2385344,27.7948176 C22.1263471,27.7822329 21.2363927,28.6549772 21.2259563,29.7684679 C21.2157246,30.8729551 22.1005632,31.7961403 23.184204,31.8113853 C24.3088741,31.8272441 25.2436434,30.9070258 25.2391413,29.7885217 C25.2346395,28.678305 24.3608512,27.807607 23.2385344,27.7948176" id="Fill-8" fill="#FFFFFF"></path>
                        </g>
                    </g>
                </g>
            </g>
        </g>
    </g>
</svg>