<?xml version="1.0" encoding="UTF-8" standalone="no"?>
<svg
   xmlns:dc="http://purl.org/dc/elements/1.1/"
   xmlns:cc="http://creativecommons.org/ns#"
   xmlns:rdf="http://www.w3.org/1999/02/22-rdf-syntax-ns#"
   xmlns:svg="http://www.w3.org/2000/svg"
   xmlns="http://www.w3.org/2000/svg"
   viewBox="0 0 47.5 47.5"
   height="38"
   width="38"
   xml:space="preserve"
   version="1.1"
   id="svg2"><metadata
     id="metadata8"><rdf:RDF><cc:Work
         rdf:about=""><dc:format>image/svg+xml</dc:format><dc:type
           rdf:resource="http://purl.org/dc/dcmitype/StillImage" /></cc:Work></rdf:RDF></metadata><defs
     id="defs6"><clipPath
       id="clipPath18"
       clipPathUnits="userSpaceOnUse"><path
         style="clip-rule:evenodd"
         id="path20"
         d="m 131.391,380 114.078,0 c 37.836,0 56.746,0 77.113,-6.434 22.234,-8.089 39.746,-25.593 47.84,-47.816 6.437,-20.352 6.437,-39.262 6.437,-77.07 l 0,-114.024 c 0,-37.8162 0,-56.7185 -6.437,-77.074 -8.094,-22.2226 -25.606,-39.7265 -47.84,-47.81247 -20.367,-6.4375 -39.277,-6.4375 -77.113,-6.4375 l -114.078,0 c -37.8363,0 -56.7504,0 -77.1137,6.4375 C 32.043,17.8555 14.5313,35.3594 6.4375,57.582 0,77.9375 0,96.8398 0,134.656 L 0,248.68 c 0,37.808 0,56.718 6.4375,77.07 8.0938,22.223 25.6055,39.727 47.8398,47.816 C 74.6406,380 93.5547,380 131.391,380 l 0,0" /></clipPath><clipPath
       id="clipPath24"
       clipPathUnits="userSpaceOnUse"><path
         id="path26"
         d="M 0,0 380,0 380,380 0,380 0,0 Z" /></clipPath><clipPath
       id="clipPath34"
       clipPathUnits="userSpaceOnUse"><path
         style="clip-rule:evenodd"
         id="path36"
         d="M 24.2813,188.957 C 24.2813,277.898 96.3789,350 185.359,350 l 0,0 c 88.961,0 161.079,-72.187 161.079,-161.043 l 0,-0.473 C 346.438,99.543 274.34,27.4414 185.359,27.4414 l 0,0 c -88.9606,0 -161.0777,72.1875 -161.0777,161.0426 l 0,0.473 z" /></clipPath><clipPath
       id="clipPath40"
       clipPathUnits="userSpaceOnUse"><path
         id="path42"
         d="M 0,0 380,0 380,380 0,380 0,0 Z" /></clipPath><clipPath
       id="clipPath50"
       clipPathUnits="userSpaceOnUse"><path
         style="clip-rule:evenodd"
         id="path52"
         d="M 23.6094,188.957 C 23.6094,277.898 95.707,350 184.688,350 l 0,0 c 88.96,0 161.078,-72.187 161.078,-161.043 l 0,-0.473 c 0,-88.941 -72.098,-161.0426 -161.078,-161.0426 l 0,0 c -88.9614,0 -161.0786,72.1875 -161.0786,161.0426 l 0,0.473 z" /></clipPath><clipPath
       id="clipPath56"
       clipPathUnits="userSpaceOnUse"><path
         id="path58"
         d="M 0,0 380,0 380,380 0,380 0,0 Z" /></clipPath><clipPath
       id="clipPath68"
       clipPathUnits="userSpaceOnUse"><path
         style="clip-rule:evenodd"
         id="path70"
         d="M 23.9453,188.957 C 23.9453,277.898 96.043,350 185.023,350 l 0,0 c 88.961,0 161.079,-72.187 161.079,-161.043 l 0,-0.473 c 0,-88.941 -72.098,-161.0426 -161.079,-161.0426 l 0,0 c -88.9605,0 -161.0777,72.1875 -161.0777,161.0426 l 0,0.473 z" /></clipPath><clipPath
       id="clipPath74"
       clipPathUnits="userSpaceOnUse"><path
         id="path76"
         d="M 0,0 380,0 380,380 0,380 0,0 Z" /></clipPath><clipPath
       id="clipPath84"
       clipPathUnits="userSpaceOnUse"><path
         style="clip-rule:evenodd"
         id="path86"
         d="M 23.6094,188.957 C 23.6094,277.898 95.707,350 184.688,350 l 0,0 c 88.96,0 161.078,-72.187 161.078,-161.043 l 0,-0.473 c 0,-88.941 -72.098,-161.0426 -161.078,-161.0426 l 0,0 c -88.9614,0 -161.0786,72.1875 -161.0786,161.0426 l 0,0.473 z" /></clipPath><clipPath
       id="clipPath90"
       clipPathUnits="userSpaceOnUse"><path
         id="path92"
         d="M 0,0 380,0 380,380 0,380 0,0 Z" /></clipPath><clipPath
       id="clipPath104"
       clipPathUnits="userSpaceOnUse"><path
         style="clip-rule:evenodd"
         id="path106"
         d="m 315.898,188.723 c 0,61.363 -58.746,61.363 -131.21,0 -72.469,-61.368 -131.2114,-61.368 -131.2114,0 0,61.363 58.7424,61.363 131.2114,0 72.464,-61.368 131.21,-61.368 131.21,0 l 0,0 0,0 z" /></clipPath><clipPath
       id="clipPath110"
       clipPathUnits="userSpaceOnUse"><path
         id="path112"
         d="M 0,0 380,0 380,380 0,380 0,0 Z" /></clipPath><clipPath
       id="clipPath120"
       clipPathUnits="userSpaceOnUse"><path
         style="clip-rule:evenodd"
         id="path122"
         d="m 251,75.2773 c 53.52,30.8987 24.063,81.9217 -65.797,113.9607 -89.8592,32.043 -119.3163,83.063 -65.797,113.965 53.52,30.899 82.977,-20.125 65.797,-113.965 C 168.023,95.3984 197.48,44.375 251,75.2773 l 0,0 0,0 z" /></clipPath><clipPath
       id="clipPath126"
       clipPathUnits="userSpaceOnUse"><path
         id="path128"
         d="M 0,0 380,0 380,380 0,380 0,0 Z" /></clipPath><clipPath
       id="clipPath136"
       clipPathUnits="userSpaceOnUse"><path
         style="clip-rule:evenodd"
         id="path138"
         d="m 129.766,69.832 c 55.863,-26.0507 80.683,27.1797 55.437,118.891 -25.246,91.711 -0.426,144.937 55.438,118.886 55.867,-26.046 31.043,-79.277 -55.438,-118.886 C 98.7227,149.109 73.8984,95.8828 129.766,69.832 l 0,0 0,0 z" /></clipPath><clipPath
       id="clipPath142"
       clipPathUnits="userSpaceOnUse"><path
         id="path144"
         d="M 0,0 380,0 380,380 0,380 0,0 Z" /></clipPath><clipPath
       id="clipPath152"
       clipPathUnits="userSpaceOnUse"><path
         id="path154"
         d="M 0,0 0,380 380,380 380,0 0,0 Z" /></clipPath><clipPath
       id="clipPath158"
       clipPathUnits="userSpaceOnUse"><path
         style="clip-rule:evenodd"
         id="path160"
         d="m -46.0508,419.488 461.4728,0 0,-461.531 -461.4728,0 0,461.531 z M 184.688,157.957 c 16.976,0 30.734,13.777 30.734,30.766 0,16.988 -13.758,30.765 -30.734,30.765 -16.977,0 -30.739,-13.777 -30.739,-30.765 0,-16.989 13.762,-30.766 30.739,-30.766 z m 0,14.488 c -8.973,0 -16.247,7.285 -16.247,16.278 0,8.988 7.274,16.273 16.247,16.273 8.968,0 16.246,-7.285 16.246,-16.273 0,-8.993 -7.278,-16.278 -16.246,-16.278 z" /></clipPath><clipPath
       id="clipPath164"
       clipPathUnits="userSpaceOnUse"><path
         style="clip-rule:evenodd"
         id="path166"
         d="m 184.688,165.203 c 12.972,0 23.488,10.527 23.488,23.52 0,12.988 -10.516,23.519 -23.488,23.519 -12.973,0 -23.493,-10.531 -23.493,-23.519 0,-12.993 10.52,-23.52 23.493,-23.52 z" /></clipPath><clipPath
       id="clipPath170"
       clipPathUnits="userSpaceOnUse"><path
         id="path172"
         d="M 0,0 380,0 380,380 0,380 0,0 Z" /></clipPath><clipPath
       id="clipPath180"
       clipPathUnits="userSpaceOnUse"><path
         style="clip-rule:evenodd"
         id="path182"
         d="m 184.688,165.203 c 12.972,0 23.488,10.527 23.488,23.52 0,12.988 -10.516,23.519 -23.488,23.519 -12.973,0 -23.493,-10.531 -23.493,-23.519 0,-12.993 10.52,-23.52 23.493,-23.52 z" /></clipPath><clipPath
       id="clipPath186"
       clipPathUnits="userSpaceOnUse"><path
         id="path188"
         d="M 0,0 380,0 380,380 0,380 0,0 Z" /></clipPath><clipPath
       id="clipPath196"
       clipPathUnits="userSpaceOnUse"><path
         style="clip-rule:evenodd"
         id="path198"
         d="m 255.801,47.8086 c 31.558,10.125 62.84,44.5898 69.879,77.0194 l 8.34,38.449 c 7.035,32.414 12.734,31.883 12.734,-1.398 l 0,-69.7345 c 0,-33.1875 -26.867,-60.7968 -60.047,-61.6445 0,0 -83.074,-2.2695 -105,-2.2695 -21.922,0 0,0 0,0 -23.266,2.1133 -15.269,5.4414 17.695,7.8711 0,0 8.633,-0.3516 24.946,2.8554 16.312,3.2071 31.453,8.8516 31.453,8.8516 z" /></clipPath><clipPath
       id="clipPath202"
       clipPathUnits="userSpaceOnUse"><path
         id="path204"
         d="M 0,0 380,0 380,380 0,380 0,0 Z" /></clipPath></defs><g
     transform="matrix(1.25,0,0,-1.25,0,47.5)"
     id="g10"><g
       transform="scale(0.1,0.1)"
       id="g12"><g
         id="g14"><g
           clip-path="url(#clipPath18)"
           id="g16"><g
             clip-path="url(#clipPath24)"
             id="g22"><path
               id="path28"
               style="fill:#e34b3b;fill-opacity:1;fill-rule:nonzero;stroke:none"
               d="m 0,0 426.859,0 0,430 L 0,430 0,0 Z" /></g></g></g><g
         id="g30"><g
           clip-path="url(#clipPath34)"
           id="g32"><g
             clip-path="url(#clipPath40)"
             id="g38"><path
               id="path44"
               style="fill:none;stroke:#ffffff;stroke-width:30;stroke-linecap:butt;stroke-linejoin:miter;stroke-miterlimit:10;stroke-dasharray:none;stroke-opacity:1"
               d="M 24.2813,188.957 C 24.2813,277.898 96.3789,350 185.359,350 l 0,0 c 88.961,0 161.079,-72.187 161.079,-161.043 l 0,-0.473 C 346.438,99.543 274.34,27.4414 185.359,27.4414 l 0,0 c -88.9606,0 -161.0777,72.1875 -161.0777,161.0426 l 0,0.473 z" /></g></g></g><g
         id="g46"><g
           clip-path="url(#clipPath50)"
           id="g48"><g
             clip-path="url(#clipPath56)"
             id="g54"><path
               id="path60"
               style="fill:none;stroke:#ffffff;stroke-width:30;stroke-linecap:butt;stroke-linejoin:miter;stroke-miterlimit:10;stroke-dasharray:none;stroke-opacity:1"
               d="M 23.6094,188.957 C 23.6094,277.898 95.707,350 184.688,350 l 0,0 c 88.96,0 161.078,-72.187 161.078,-161.043 l 0,-0.473 c 0,-88.941 -72.098,-161.0426 -161.078,-161.0426 l 0,0 c -88.9614,0 -161.0786,72.1875 -161.0786,161.0426 l 0,0.473 z" /><path
               id="path62"
               style="fill:none;stroke:#ffffff;stroke-width:30;stroke-linecap:butt;stroke-linejoin:miter;stroke-miterlimit:10;stroke-dasharray:none;stroke-opacity:1"
               d="M 23.6094,188.957 C 23.6094,277.898 95.707,350 184.688,350 l 0,0 c 88.96,0 161.078,-72.187 161.078,-161.043 l 0,-0.473 c 0,-88.941 -72.098,-161.0426 -161.078,-161.0426 l 0,0 c -88.9614,0 -161.0786,72.1875 -161.0786,161.0426 l 0,0.473 z" /></g></g></g><g
         id="g64"><g
           clip-path="url(#clipPath68)"
           id="g66"><g
             clip-path="url(#clipPath74)"
             id="g72"><path
               id="path78"
               style="fill:none;stroke:#ffffff;stroke-width:30;stroke-linecap:butt;stroke-linejoin:miter;stroke-miterlimit:10;stroke-dasharray:none;stroke-opacity:1"
               d="M 23.9453,188.957 C 23.9453,277.898 96.043,350 185.023,350 l 0,0 c 88.961,0 161.079,-72.187 161.079,-161.043 l 0,-0.473 c 0,-88.941 -72.098,-161.0426 -161.079,-161.0426 l 0,0 c -88.9605,0 -161.0777,72.1875 -161.0777,161.0426 l 0,0.473 z" /></g></g></g><g
         id="g80"><g
           clip-path="url(#clipPath84)"
           id="g82"><g
             clip-path="url(#clipPath90)"
             id="g88"><path
               id="path94"
               style="fill:none;stroke:#ffffff;stroke-width:30;stroke-linecap:butt;stroke-linejoin:miter;stroke-miterlimit:10;stroke-dasharray:none;stroke-opacity:1"
               d="M 23.6094,188.957 C 23.6094,277.898 95.707,350 184.688,350 l 0,0 c 88.96,0 161.078,-72.187 161.078,-161.043 l 0,-0.473 c 0,-88.941 -72.098,-161.0426 -161.078,-161.0426 l 0,0 c -88.9614,0 -161.0786,72.1875 -161.0786,161.0426 l 0,0.473 z" /><path
               id="path96"
               style="fill:none;stroke:#ffffff;stroke-width:30;stroke-linecap:butt;stroke-linejoin:miter;stroke-miterlimit:10;stroke-dasharray:none;stroke-opacity:1"
               d="M 23.6094,188.957 C 23.6094,277.898 95.707,350 184.688,350 l 0,0 c 88.96,0 161.078,-72.187 161.078,-161.043 l 0,-0.473 c 0,-88.941 -72.098,-161.0426 -161.078,-161.0426 l 0,0 c -88.9614,0 -161.0786,72.1875 -161.0786,161.0426 l 0,0.473 z" /><path
               id="path98"
               style="fill:none;stroke:#ffffff;stroke-width:30;stroke-linecap:butt;stroke-linejoin:miter;stroke-miterlimit:10;stroke-dasharray:none;stroke-opacity:1"
               d="M 23.6094,188.957 C 23.6094,277.898 95.707,350 184.688,350 l 0,0 c 88.96,0 161.078,-72.187 161.078,-161.043 l 0,-0.473 c 0,-88.941 -72.098,-161.0426 -161.078,-161.0426 l 0,0 c -88.9614,0 -161.0786,72.1875 -161.0786,161.0426 l 0,0.473 z" /></g></g></g><g
         id="g100"><g
           clip-path="url(#clipPath104)"
           id="g102"><g
             clip-path="url(#clipPath110)"
             id="g108"><path
               id="path114"
               style="fill:none;stroke:#ffffff;stroke-width:30;stroke-linecap:butt;stroke-linejoin:miter;stroke-miterlimit:10;stroke-dasharray:none;stroke-opacity:1"
               d="m 315.898,188.723 c 0,61.363 -58.746,61.363 -131.21,0 -72.469,-61.368 -131.2114,-61.368 -131.2114,0 0,61.363 58.7424,61.363 131.2114,0 72.464,-61.368 131.21,-61.368 131.21,0 l 0,0 z" /></g></g></g><g
         id="g116"><g
           clip-path="url(#clipPath120)"
           id="g118"><g
             clip-path="url(#clipPath126)"
             id="g124"><path
               id="path130"
               style="fill:none;stroke:#ffffff;stroke-width:30;stroke-linecap:butt;stroke-linejoin:miter;stroke-miterlimit:10;stroke-dasharray:none;stroke-opacity:1"
               d="m 251,75.2773 c 53.52,30.8987 24.063,81.9217 -65.797,113.9607 -89.8592,32.043 -119.3163,83.063 -65.797,113.965 53.52,30.899 82.977,-20.125 65.797,-113.965 C 168.023,95.3984 197.48,44.375 251,75.2773 l 0,0 z" /></g></g></g><g
         id="g132"><g
           clip-path="url(#clipPath136)"
           id="g134"><g
             clip-path="url(#clipPath142)"
             id="g140"><path
               id="path146"
               style="fill:none;stroke:#ffffff;stroke-width:30;stroke-linecap:butt;stroke-linejoin:miter;stroke-miterlimit:10;stroke-dasharray:none;stroke-opacity:1"
               d="m 129.766,69.832 c 55.863,-26.0507 80.683,27.1797 55.437,118.891 -25.246,91.711 -0.426,144.937 55.438,118.886 55.867,-26.046 31.043,-79.277 -55.438,-118.886 C 98.7227,149.109 73.8984,95.8828 129.766,69.832 l 0,0 z" /></g></g></g><g
         id="g148"><g
           clip-path="url(#clipPath152)"
           id="g150"><g
             clip-path="url(#clipPath158)"
             id="g156"><g
               clip-path="url(#clipPath164)"
               id="g162"><g
                 clip-path="url(#clipPath170)"
                 id="g168"><path
                   id="path174"
                   style="fill:#32c47f;fill-opacity:1;fill-rule:nonzero;stroke:none"
                   d="m 184.688,165.203 c 12.972,0 23.488,10.527 23.488,23.52 0,12.988 -10.516,23.519 -23.488,23.519 -12.973,0 -23.493,-10.531 -23.493,-23.519 0,-12.993 10.52,-23.52 23.493,-23.52" /></g></g></g></g></g><g
         id="g176"><g
           clip-path="url(#clipPath180)"
           id="g178"><g
             clip-path="url(#clipPath186)"
             id="g184"><path
               id="path190"
               style="fill:none;stroke:#cc3b02;stroke-width:28.97999954;stroke-linecap:butt;stroke-linejoin:miter;stroke-miterlimit:10;stroke-dasharray:none;stroke-opacity:1"
               d="m 184.688,165.203 c 12.972,0 23.488,10.527 23.488,23.52 0,12.988 -10.516,23.519 -23.488,23.519 -12.973,0 -23.493,-10.531 -23.493,-23.519 0,-12.993 10.52,-23.52 23.493,-23.52 z" /></g></g></g><g
         id="g192"><g
           clip-path="url(#clipPath196)"
           id="g194"><g
             clip-path="url(#clipPath202)"
             id="g200"><path
               id="path206"
               style="fill:#ffffff;fill-opacity:1;fill-rule:nonzero;stroke:none"
               d="m 118.375,0 278.379,0 0,237.219 -278.379,0 0,-237.219 z" /></g></g></g></g></g></svg>
